<svg version="1.1" viewBox="0.0 0.0 600.0 371.0" fill="none" stroke="none" stroke-linecap="square" stroke-miterlimit="10" width="600" height="371" xmlns:xlink="http://www.w3.org/1999/xlink" xmlns="http://www.w3.org/2000/svg"><path fill="#ffffff" d="M0 0L600.0 0L600.0 371.0L0 371.0L0 0Z" fill-rule="nonzero"/><path stroke="#333333" stroke-width="1.0" stroke-linecap="butt" d="M45.5 332.5L581.5 332.5" fill-rule="nonzero"/><path stroke="#cccccc" stroke-width="1.0" stroke-linecap="butt" d="M45.5 262.5L581.5 262.5" fill-rule="nonzero"/><path stroke="#cccccc" stroke-width="1.0" stroke-linecap="butt" d="M45.5 192.5L581.5 192.5" fill-rule="nonzero"/><path stroke="#cccccc" stroke-width="1.0" stroke-linecap="butt" d="M45.5 122.5L581.5 122.5" fill-rule="nonzero"/><path stroke="#cccccc" stroke-width="1.0" stroke-linecap="butt" d="M45.5 51.5L581.5 51.5" fill-rule="nonzero"/><path stroke="#000000" stroke-width="1.0" stroke-linecap="butt" stroke-opacity="0.0" d="M45.5 309.5L581.5 309.5" fill-rule="nonzero"/><path stroke="#000000" stroke-width="1.0" stroke-linecap="butt" stroke-opacity="0.0" d="M45.5 285.5L581.5 285.5" fill-rule="nonzero"/><path stroke="#000000" stroke-width="1.0" stroke-linecap="butt" stroke-opacity="0.0" d="M45.5 238.5L581.5 238.5" fill-rule="nonzero"/><path stroke="#000000" stroke-width="1.0" stroke-linecap="butt" stroke-opacity="0.0" d="M45.5 215.5L581.5 215.5" fill-rule="nonzero"/><path stroke="#000000" stroke-width="1.0" stroke-linecap="butt" stroke-opacity="0.0" d="M45.5 168.5L581.5 168.5" fill-rule="nonzero"/><path stroke="#000000" stroke-width="1.0" stroke-linecap="butt" stroke-opacity="0.0" d="M45.5 145.5L581.5 145.5" fill-rule="nonzero"/><path stroke="#000000" stroke-width="1.0" stroke-linecap="butt" stroke-opacity="0.0" d="M45.5 98.5L581.5 98.5" fill-rule="nonzero"/><path stroke="#000000" stroke-width="1.0" stroke-linecap="butt" stroke-opacity="0.0" d="M45.5 75.5L581.5 75.5" fill-rule="nonzero"/><path stroke="#eeeeee" stroke-width="1.0" stroke-linecap="butt" d="M99.14 105.69933L99.14 121.69933" fill-rule="nonzero"/><path stroke="#eeeeee" stroke-width="1.0" stroke-linecap="butt" d="M206.32 101.842L206.32 117.842" fill-rule="nonzero"/><path stroke="#eeeeee" stroke-width="1.0" stroke-linecap="butt" d="M313.5 94.127335L313.5 110.127335" fill-rule="nonzero"/><path stroke="#eeeeee" stroke-width="1.0" stroke-linecap="butt" d="M420.68 86.763336L420.68 102.763336" fill-rule="nonzero"/><path stroke="#eeeeee" stroke-width="1.0" stroke-linecap="butt" d="M527.86 95.17934L527.86 111.17934" fill-rule="nonzero"/><path stroke="#eeeeee" stroke-width="1.0" stroke-linecap="butt" d="M99.14 274.37L99.14 290.37" fill-rule="nonzero"/><path stroke="#eeeeee" stroke-width="1.0" stroke-linecap="butt" d="M206.32 280.33133L206.32 296.33133" fill-rule="nonzero"/><path stroke="#eeeeee" stroke-width="1.0" stroke-linecap="butt" d="M313.5 282.08466L313.5 298.08466" fill-rule="nonzero"/><path stroke="#eeeeee" stroke-width="1.0" stroke-linecap="butt" d="M420.68 282.786L420.68 298.786" fill-rule="nonzero"/><path stroke="#eeeeee" stroke-width="1.0" stroke-linecap="butt" d="M527.86 282.08466L527.86 298.08466" fill-rule="nonzero"/><clipPath id="id_0"><path d="M45.55 51.916668L581.45 51.916668L581.45 332.45L45.55 332.45L45.55 51.916668Z" clip-rule="nonzero"/></clipPath><path stroke="#4285f4" stroke-width="2.0" stroke-linecap="butt" clip-path="url(#id_0)" d="M99.14 121.69933L206.32 117.842L313.5 110.127335L420.68 102.763336L527.86 111.17934" fill-rule="nonzero"/><path stroke="#ea4335" stroke-width="2.0" stroke-linecap="butt" clip-path="url(#id_0)" d="M99.14 290.37L206.32 296.33133L313.5 298.08466L420.68 298.786L527.86 298.08466" fill-rule="nonzero"/><path fill="#4285f4" clip-path="url(#id_0)" d="M105.14 121.69933C105.14 125.01304 102.453705 127.69933 99.14 127.69933C95.826294 127.69933 93.14 125.01304 93.14 121.69933C93.14 118.38563 95.826294 115.69933 99.14 115.69933C102.453705 115.69933 105.14 118.38563 105.14 121.69933Z" fill-rule="nonzero"/><path fill="#4285f4" clip-path="url(#id_0)" d="M212.32 117.842C212.32 121.15571 209.63371 123.842 206.32 123.842C203.00629 123.842 200.32 121.15571 200.32 117.842C200.32 114.52829 203.00629 111.842 206.32 111.842C209.63371 111.842 212.32 114.52829 212.32 117.842Z" fill-rule="nonzero"/><path fill="#4285f4" clip-path="url(#id_0)" d="M319.5 110.127335C319.5 113.44104 316.81372 116.127335 313.5 116.127335C310.18628 116.127335 307.5 113.44104 307.5 110.127335C307.5 106.81362 310.18628 104.127335 313.5 104.127335C316.81372 104.127335 319.5 106.81362 319.5 110.127335Z" fill-rule="nonzero"/><path fill="#4285f4" clip-path="url(#id_0)" d="M426.68 102.763336C426.68 106.07704 423.9937 108.763336 420.68 108.763336C417.3663 108.763336 414.68 106.07704 414.68 102.763336C414.68 99.44962 417.3663 96.763336 420.68 96.763336C423.9937 96.763336 426.68 99.44962 426.68 102.763336Z" fill-rule="nonzero"/><path fill="#4285f4" clip-path="url(#id_0)" d="M533.86 111.17934C533.86 114.49304 531.1737 117.17934 527.86 117.17934C524.54626 117.17934 521.86 114.49304 521.86 111.17934C521.86 107.86562 524.54626 105.17934 527.86 105.17934C531.1737 105.17934 533.86 107.86562 533.86 111.17934Z" fill-rule="nonzero"/><path fill="#ea4335" clip-path="url(#id_0)" d="M105.14 290.37C105.14 293.68372 102.453705 296.37 99.14 296.37C95.826294 296.37 93.14 293.68372 93.14 290.37C93.14 287.0563 95.826294 284.37 99.14 284.37C102.453705 284.37 105.14 287.0563 105.14 290.37Z" fill-rule="nonzero"/><path fill="#ea4335" clip-path="url(#id_0)" d="M212.32 296.33133C212.32 299.64505 209.63371 302.33133 206.32 302.33133C203.00629 302.33133 200.32 299.64505 200.32 296.33133C200.32 293.01764 203.00629 290.33133 206.32 290.33133C209.63371 290.33133 212.32 293.01764 212.32 296.33133Z" fill-rule="nonzero"/><path fill="#ea4335" clip-path="url(#id_0)" d="M319.5 298.08466C319.5 301.39838 316.81372 304.08466 313.5 304.08466C310.18628 304.08466 307.5 301.39838 307.5 298.08466C307.5 294.77097 310.18628 292.08466 313.5 292.08466C316.81372 292.08466 319.5 294.77097 319.5 298.08466Z" fill-rule="nonzero"/><path fill="#ea4335" clip-path="url(#id_0)" d="M426.68 298.786C426.68 302.0997 423.9937 304.786 420.68 304.786C417.3663 304.786 414.68 302.0997 414.68 298.786C414.68 295.4723 417.3663 292.786 420.68 292.786C423.9937 292.786 426.68 295.4723 426.68 298.786Z" fill-rule="nonzero"/><path fill="#ea4335" clip-path="url(#id_0)" d="M533.86 298.08466C533.86 301.39838 531.1737 304.08466 527.86 304.08466C524.54626 304.08466 521.86 301.39838 521.86 298.08466C521.86 294.77097 524.54626 292.08466 527.86 292.08466C531.1737 292.08466 533.86 294.77097 533.86 298.08466Z" fill-rule="nonzero"/><path stroke="#ffffff" stroke-width="3.0" stroke-linejoin="round" stroke-linecap="round" d="M92.60875 95.16808L92.60875 96.07433L92.405624 96.07433Q91.14 96.10558 90.39 96.83996Q89.64 97.55871 89.515 98.87121Q90.2025 98.10558 91.35875 98.10558Q92.468124 98.10558 93.14 98.88683Q93.811874 99.66808 93.811874 100.91808Q93.811874 102.23058 93.093124 103.02746Q92.374374 103.82433 91.155624 103.82433Q89.936874 103.82433 89.17125 102.88683Q88.42125 101.93371 88.42125 100.44933L88.42125 100.04308Q88.42125 97.68371 89.42125 96.43371Q90.42125 95.18371 92.405624 95.16808L92.60875 95.16808ZM91.186874 99.01183Q90.624374 99.01183 90.155624 99.33996Q89.686874 99.66808 89.499374 100.18371L89.499374 100.57433Q89.499374 101.63683 89.968124 102.27746Q90.4525 102.91808 91.155624 102.91808Q91.89 102.91808 92.311874 102.38683Q92.73375 101.83996 92.73375 100.96496Q92.73375 100.08996 92.311874 99.55871Q91.89 99.01183 91.186874 99.01183ZM100.7025 100.05871Q100.7025 101.96496 100.04625 102.90246Q99.405624 103.82433 98.015 103.82433Q96.655624 103.82433 95.999374 102.91808Q95.343124 102.01183 95.311874 100.19933L95.311874 98.76183Q95.311874 96.87121 95.9525 95.96496Q96.60875 95.04308 97.999374 95.04308Q99.374374 95.04308 100.030624 95.93371Q100.686874 96.80871 100.7025 98.65246L100.7025 100.05871ZM99.60875 98.57433Q99.60875 97.19933 99.218124 96.57433Q98.843124 95.93371 97.999374 95.93371Q97.17125 95.93371 96.780624 96.57433Q96.405624 97.19933 96.405624 98.49621L96.405624 100.23058Q96.405624 101.60558 96.79625 102.27746Q97.2025 102.93371 98.015 102.93371Q98.811874 102.93371 99.2025 102.30871Q99.593124 101.68371 99.60875 100.35558L99.60875 98.57433ZM102.42125 105.40246L101.811874 104.98058Q102.35875 104.21496 102.39 103.38683L102.39 102.41808L103.4525 102.41808L103.4525 103.26183Q103.4525 103.85558 103.155624 104.44933Q102.85875 105.04308 102.42125 105.40246ZM107.905624 103.69933L106.8275 103.69933L106.8275 96.48058L104.64 97.27746L104.64 96.29308L107.749374 95.12121L107.905624 95.12121L107.905624 103.69933Z" fill-rule="nonzero"/><path fill="#4285f4" d="M92.60875 95.16808L92.60875 96.07433L92.405624 96.07433Q91.14 96.10558 90.39 96.83996Q89.64 97.55871 89.515 98.87121Q90.2025 98.10558 91.35875 98.10558Q92.468124 98.10558 93.14 98.88683Q93.811874 99.66808 93.811874 100.91808Q93.811874 102.23058 93.093124 103.02746Q92.374374 103.82433 91.155624 103.82433Q89.936874 103.82433 89.17125 102.88683Q88.42125 101.93371 88.42125 100.44933L88.42125 100.04308Q88.42125 97.68371 89.42125 96.43371Q90.42125 95.18371 92.405624 95.16808L92.60875 95.16808ZM91.186874 99.01183Q90.624374 99.01183 90.155624 99.33996Q89.686874 99.66808 89.499374 100.18371L89.499374 100.57433Q89.499374 101.63683 89.968124 102.27746Q90.4525 102.91808 91.155624 102.91808Q91.89 102.91808 92.311874 102.38683Q92.73375 101.83996 92.73375 100.96496Q92.73375 100.08996 92.311874 99.55871Q91.89 99.01183 91.186874 99.01183ZM100.7025 100.05871Q100.7025 101.96496 100.04625 102.90246Q99.405624 103.82433 98.015 103.82433Q96.655624 103.82433 95.999374 102.91808Q95.343124 102.01183 95.311874 100.19933L95.311874 98.76183Q95.311874 96.87121 95.9525 95.96496Q96.60875 95.04308 97.999374 95.04308Q99.374374 95.04308 100.030624 95.93371Q100.686874 96.80871 100.7025 98.65246L100.7025 100.05871ZM99.60875 98.57433Q99.60875 97.19933 99.218124 96.57433Q98.843124 95.93371 97.999374 95.93371Q97.17125 95.93371 96.780624 96.57433Q96.405624 97.19933 96.405624 98.49621L96.405624 100.23058Q96.405624 101.60558 96.79625 102.27746Q97.2025 102.93371 98.015 102.93371Q98.811874 102.93371 99.2025 102.30871Q99.593124 101.68371 99.60875 100.35558L99.60875 98.57433ZM102.42125 105.40246L101.811874 104.98058Q102.35875 104.21496 102.39 103.38683L102.39 102.41808L103.4525 102.41808L103.4525 103.26183Q103.4525 103.85558 103.155624 104.44933Q102.85875 105.04308 102.42125 105.40246ZM107.905624 103.69933L106.8275 103.69933L106.8275 96.48058L104.64 97.27746L104.64 96.29308L107.749374 95.12121L107.905624 95.12121L107.905624 103.69933Z" fill-rule="nonzero"/><path stroke="#ffffff" stroke-width="3.0" stroke-linejoin="round" stroke-linecap="round" d="M199.78876 91.31075L199.78876 92.217L199.58563 92.217Q198.32 92.24825 197.57 92.98263Q196.82 93.70138 196.695 95.01388Q197.3825 94.24825 198.53876 94.24825Q199.64813 94.24825 200.32 95.0295Q200.99188 95.81075 200.99188 97.06075Q200.99188 98.37325 200.27313 99.17013Q199.55438 99.967 198.33563 99.967Q197.11688 99.967 196.35126 99.0295Q195.60126 98.07638 195.60126 96.592L195.60126 96.18575Q195.60126 93.82638 196.60126 92.57638Q197.60126 91.32638 199.58563 91.31075L199.78876 91.31075ZM198.36688 95.1545Q197.80438 95.1545 197.33563 95.48263Q196.86688 95.81075 196.67938 96.32638L196.67938 96.717Q196.67938 97.7795 197.14813 98.42013Q197.6325 99.06075 198.33563 99.06075Q199.07 99.06075 199.49188 98.5295Q199.91376 97.98263 199.91376 97.10763Q199.91376 96.23263 199.49188 95.70138Q199.07 95.1545 198.36688 95.1545ZM206.08563 99.842L205.0075 99.842L205.0075 92.62325L202.82 93.42013L202.82 92.43575L205.92938 91.26388L206.08563 91.26388L206.08563 99.842ZM209.60126 101.54513L208.99188 101.12325Q209.53876 100.35763 209.57 99.5295L209.57 98.56075L210.6325 98.56075L210.6325 99.4045Q210.6325 99.99825 210.33563 100.592Q210.03876 101.18575 209.60126 101.54513ZM217.11688 99.842L211.52313 99.842L211.52313 99.06075L214.47626 95.7795Q215.1325 95.0295 215.3825 94.57638Q215.6325 94.10763 215.6325 93.60763Q215.6325 92.93575 215.22626 92.51388Q214.83563 92.07638 214.14813 92.07638Q213.35126 92.07638 212.89813 92.54513Q212.445 92.99825 212.445 93.82638L211.36688 93.82638Q211.36688 92.63888 212.11688 91.92013Q212.8825 91.18575 214.14813 91.18575Q215.35126 91.18575 216.03876 91.81075Q216.72626 92.43575 216.72626 93.48263Q216.72626 94.73263 215.11688 96.48263L212.83563 98.95138L217.11688 98.95138L217.11688 99.842Z" fill-rule="nonzero"/><path fill="#4285f4" d="M199.78876 91.31075L199.78876 92.217L199.58563 92.217Q198.32 92.24825 197.57 92.98263Q196.82 93.70138 196.695 95.01388Q197.3825 94.24825 198.53876 94.24825Q199.64813 94.24825 200.32 95.0295Q200.99188 95.81075 200.99188 97.06075Q200.99188 98.37325 200.27313 99.17013Q199.55438 99.967 198.33563 99.967Q197.11688 99.967 196.35126 99.0295Q195.60126 98.07638 195.60126 96.592L195.60126 96.18575Q195.60126 93.82638 196.60126 92.57638Q197.60126 91.32638 199.58563 91.31075L199.78876 91.31075ZM198.36688 95.1545Q197.80438 95.1545 197.33563 95.48263Q196.86688 95.81075 196.67938 96.32638L196.67938 96.717Q196.67938 97.7795 197.14813 98.42013Q197.6325 99.06075 198.33563 99.06075Q199.07 99.06075 199.49188 98.5295Q199.91376 97.98263 199.91376 97.10763Q199.91376 96.23263 199.49188 95.70138Q199.07 95.1545 198.36688 95.1545ZM206.08563 99.842L205.0075 99.842L205.0075 92.62325L202.82 93.42013L202.82 92.43575L205.92938 91.26388L206.08563 91.26388L206.08563 99.842ZM209.60126 101.54513L208.99188 101.12325Q209.53876 100.35763 209.57 99.5295L209.57 98.56075L210.6325 98.56075L210.6325 99.4045Q210.6325 99.99825 210.33563 100.592Q210.03876 101.18575 209.60126 101.54513ZM217.11688 99.842L211.52313 99.842L211.52313 99.06075L214.47626 95.7795Q215.1325 95.0295 215.3825 94.57638Q215.6325 94.10763 215.6325 93.60763Q215.6325 92.93575 215.22626 92.51388Q214.83563 92.07638 214.14813 92.07638Q213.35126 92.07638 212.89813 92.54513Q212.445 92.99825 212.445 93.82638L211.36688 93.82638Q211.36688 92.63888 212.11688 91.92013Q212.8825 91.18575 214.14813 91.18575Q215.35126 91.18575 216.03876 91.81075Q216.72626 92.43575 216.72626 93.48263Q216.72626 94.73263 215.11688 96.48263L212.83563 98.95138L217.11688 98.95138L217.11688 99.842Z" fill-rule="nonzero"/><path stroke="#ffffff" stroke-width="3.0" stroke-linejoin="round" stroke-linecap="round" d="M306.96875 83.596085L306.96875 84.502335L306.76562 84.502335Q305.5 84.533585 304.75 85.26796Q304.0 85.98671 303.875 87.29921Q304.5625 86.533585 305.71875 86.533585Q306.82812 86.533585 307.5 87.314835Q308.17188 88.096085 308.17188 89.346085Q308.17188 90.658585 307.45312 91.45546Q306.73438 92.252335 305.51562 92.252335Q304.29688 92.252335 303.53125 91.314835Q302.78125 90.36171 302.78125 88.877335L302.78125 88.471085Q302.78125 86.11171 303.78125 84.86171Q304.78125 83.61171 306.76562 83.596085L306.96875 83.596085ZM305.54688 87.439835Q304.98438 87.439835 304.51562 87.76796Q304.04688 88.096085 303.85938 88.61171L303.85938 89.002335Q303.85938 90.064835 304.32812 90.70546Q304.8125 91.346085 305.51562 91.346085Q306.25 91.346085 306.67188 90.814835Q307.09375 90.26796 307.09375 89.39296Q307.09375 88.51796 306.67188 87.98671Q306.25 87.439835 305.54688 87.439835ZM311.28125 87.33046L312.09375 87.33046Q312.875 87.314835 313.3125 86.92421Q313.75 86.533585 313.75 85.86171Q313.75 84.36171 312.25 84.36171Q311.54688 84.36171 311.125 84.76796Q310.71875 85.17421 310.71875 85.83046L309.625 85.83046Q309.625 84.814835 310.35938 84.14296Q311.10938 83.471085 312.25 83.471085Q313.45312 83.471085 314.14062 84.11171Q314.82812 84.752335 314.82812 85.89296Q314.82812 86.45546 314.46875 86.971085Q314.10938 87.48671 313.48438 87.752335Q314.1875 87.971085 314.5625 88.48671Q314.95312 89.002335 314.95312 89.752335Q314.95312 90.89296 314.20312 91.58046Q313.45312 92.252335 312.25 92.252335Q311.0625 92.252335 310.29688 91.596085Q309.54688 90.939835 309.54688 89.877335L310.64062 89.877335Q310.64062 90.54921 311.07812 90.95546Q311.51562 91.36171 312.26562 91.36171Q313.04688 91.36171 313.45312 90.95546Q313.875 90.533585 313.875 89.76796Q313.875 89.033585 313.42188 88.64296Q312.96875 88.23671 312.09375 88.221085L311.28125 88.221085L311.28125 87.33046ZM316.78125 93.83046L316.17188 93.408585Q316.71875 92.64296 316.75 91.814835L316.75 90.846085L317.8125 90.846085L317.8125 91.689835Q317.8125 92.283585 317.51562 92.877335Q317.21875 93.471085 316.78125 93.83046ZM323.28125 89.26796L324.46875 89.26796L324.46875 90.14296L323.28125 90.14296L323.28125 92.127335L322.20312 92.127335L322.20312 90.14296L318.3125 90.14296L318.3125 89.502335L322.125 83.596085L323.28125 83.596085L323.28125 89.26796ZM319.54688 89.26796L322.20312 89.26796L322.20312 85.08046L322.0625 85.314835L319.54688 89.26796Z" fill-rule="nonzero"/><path fill="#4285f4" d="M306.96875 83.596085L306.96875 84.502335L306.76562 84.502335Q305.5 84.533585 304.75 85.26796Q304.0 85.98671 303.875 87.29921Q304.5625 86.533585 305.71875 86.533585Q306.82812 86.533585 307.5 87.314835Q308.17188 88.096085 308.17188 89.346085Q308.17188 90.658585 307.45312 91.45546Q306.73438 92.252335 305.51562 92.252335Q304.29688 92.252335 303.53125 91.314835Q302.78125 90.36171 302.78125 88.877335L302.78125 88.471085Q302.78125 86.11171 303.78125 84.86171Q304.78125 83.61171 306.76562 83.596085L306.96875 83.596085ZM305.54688 87.439835Q304.98438 87.439835 304.51562 87.76796Q304.04688 88.096085 303.85938 88.61171L303.85938 89.002335Q303.85938 90.064835 304.32812 90.70546Q304.8125 91.346085 305.51562 91.346085Q306.25 91.346085 306.67188 90.814835Q307.09375 90.26796 307.09375 89.39296Q307.09375 88.51796 306.67188 87.98671Q306.25 87.439835 305.54688 87.439835ZM311.28125 87.33046L312.09375 87.33046Q312.875 87.314835 313.3125 86.92421Q313.75 86.533585 313.75 85.86171Q313.75 84.36171 312.25 84.36171Q311.54688 84.36171 311.125 84.76796Q310.71875 85.17421 310.71875 85.83046L309.625 85.83046Q309.625 84.814835 310.35938 84.14296Q311.10938 83.471085 312.25 83.471085Q313.45312 83.471085 314.14062 84.11171Q314.82812 84.752335 314.82812 85.89296Q314.82812 86.45546 314.46875 86.971085Q314.10938 87.48671 313.48438 87.752335Q314.1875 87.971085 314.5625 88.48671Q314.95312 89.002335 314.95312 89.752335Q314.95312 90.89296 314.20312 91.58046Q313.45312 92.252335 312.25 92.252335Q311.0625 92.252335 310.29688 91.596085Q309.54688 90.939835 309.54688 89.877335L310.64062 89.877335Q310.64062 90.54921 311.07812 90.95546Q311.51562 91.36171 312.26562 91.36171Q313.04688 91.36171 313.45312 90.95546Q313.875 90.533585 313.875 89.76796Q313.875 89.033585 313.42188 88.64296Q312.96875 88.23671 312.09375 88.221085L311.28125 88.221085L311.28125 87.33046ZM316.78125 93.83046L316.17188 93.408585Q316.71875 92.64296 316.75 91.814835L316.75 90.846085L317.8125 90.846085L317.8125 91.689835Q317.8125 92.283585 317.51562 92.877335Q317.21875 93.471085 316.78125 93.83046ZM323.28125 89.26796L324.46875 89.26796L324.46875 90.14296L323.28125 90.14296L323.28125 92.127335L322.20312 92.127335L322.20312 90.14296L318.3125 90.14296L318.3125 89.502335L322.125 83.596085L323.28125 83.596085L323.28125 89.26796ZM319.54688 89.26796L322.20312 89.26796L322.20312 85.08046L322.0625 85.314835L319.54688 89.26796Z" fill-rule="nonzero"/><path stroke="#ffffff" stroke-width="3.0" stroke-linejoin="round" stroke-linecap="round" d="M414.14874 76.232086L414.14874 77.138336L413.94562 77.138336Q412.68 77.169586 411.93 77.90396Q411.18 78.62271 411.055 79.93521Q411.7425 79.169586 412.89874 79.169586Q414.00812 79.169586 414.68 79.950836Q415.35187 80.732086 415.35187 81.982086Q415.35187 83.294586 414.63312 84.09146Q413.91437 84.888336 412.69562 84.888336Q411.47687 84.888336 410.71124 83.950836Q409.96124 82.99771 409.96124 81.513336L409.96124 81.107086Q409.96124 78.74771 410.96124 77.49771Q411.96124 76.24771 413.94562 76.232086L414.14874 76.232086ZM412.72687 80.075836Q412.16437 80.075836 411.69562 80.40396Q411.22687 80.732086 411.03937 81.24771L411.03937 81.638336Q411.03937 82.700836 411.50812 83.34146Q411.9925 83.982086 412.69562 83.982086Q413.43 83.982086 413.85187 83.450836Q414.27374 82.90396 414.27374 82.02896Q414.27374 81.15396 413.85187 80.62271Q413.43 80.075836 412.72687 80.075836ZM417.38312 80.482086L417.82062 76.232086L422.19562 76.232086L422.19562 77.232086L418.7425 77.232086L418.47687 79.56021Q419.1175 79.18521 419.91437 79.18521Q421.07062 79.18521 421.75812 79.96646Q422.44562 80.732086 422.44562 82.044586Q422.44562 83.357086 421.72687 84.12271Q421.02374 84.888336 419.7425 84.888336Q418.6175 84.888336 417.89874 84.263336Q417.18 83.62271 417.08624 82.513336L418.10187 82.513336Q418.21124 83.24771 418.63312 83.62271Q419.055 83.99771 419.7425 83.99771Q420.4925 83.99771 420.93 83.482086Q421.3675 82.96646 421.3675 82.06021Q421.3675 81.200836 420.89874 80.68521Q420.43 80.169586 419.64874 80.169586Q418.94562 80.169586 418.53937 80.46646L418.25812 80.700836L417.38312 80.482086ZM423.96124 86.46646L423.35187 86.044586Q423.89874 85.27896 423.93 84.450836L423.93 83.482086L424.9925 83.482086L424.9925 84.325836Q424.9925 84.919586 424.69562 85.513336Q424.39874 86.107086 423.96124 86.46646ZM426.38312 80.482086L426.82062 76.232086L431.19562 76.232086L431.19562 77.232086L427.7425 77.232086L427.47687 79.56021Q428.1175 79.18521 428.91437 79.18521Q430.07062 79.18521 430.75812 79.96646Q431.44562 80.732086 431.44562 82.044586Q431.44562 83.357086 430.72687 84.12271Q430.02374 84.888336 428.7425 84.888336Q427.6175 84.888336 426.89874 84.263336Q426.18 83.62271 426.08624 82.513336L427.10187 82.513336Q427.21124 83.24771 427.63312 83.62271Q428.055 83.99771 428.7425 83.99771Q429.4925 83.99771 429.93 83.482086Q430.3675 82.96646 430.3675 82.06021Q430.3675 81.200836 429.89874 80.68521Q429.43 80.169586 428.64874 80.169586Q427.94562 80.169586 427.53937 80.46646L427.25812 80.700836L426.38312 80.482086Z" fill-rule="nonzero"/><path fill="#4285f4" d="M414.14874 76.232086L414.14874 77.138336L413.94562 77.138336Q412.68 77.169586 411.93 77.90396Q411.18 78.62271 411.055 79.93521Q411.7425 79.169586 412.89874 79.169586Q414.00812 79.169586 414.68 79.950836Q415.35187 80.732086 415.35187 81.982086Q415.35187 83.294586 414.63312 84.09146Q413.91437 84.888336 412.69562 84.888336Q411.47687 84.888336 410.71124 83.950836Q409.96124 82.99771 409.96124 81.513336L409.96124 81.107086Q409.96124 78.74771 410.96124 77.49771Q411.96124 76.24771 413.94562 76.232086L414.14874 76.232086ZM412.72687 80.075836Q412.16437 80.075836 411.69562 80.40396Q411.22687 80.732086 411.03937 81.24771L411.03937 81.638336Q411.03937 82.700836 411.50812 83.34146Q411.9925 83.982086 412.69562 83.982086Q413.43 83.982086 413.85187 83.450836Q414.27374 82.90396 414.27374 82.02896Q414.27374 81.15396 413.85187 80.62271Q413.43 80.075836 412.72687 80.075836ZM417.38312 80.482086L417.82062 76.232086L422.19562 76.232086L422.19562 77.232086L418.7425 77.232086L418.47687 79.56021Q419.1175 79.18521 419.91437 79.18521Q421.07062 79.18521 421.75812 79.96646Q422.44562 80.732086 422.44562 82.044586Q422.44562 83.357086 421.72687 84.12271Q421.02374 84.888336 419.7425 84.888336Q418.6175 84.888336 417.89874 84.263336Q417.18 83.62271 417.08624 82.513336L418.10187 82.513336Q418.21124 83.24771 418.63312 83.62271Q419.055 83.99771 419.7425 83.99771Q420.4925 83.99771 420.93 83.482086Q421.3675 82.96646 421.3675 82.06021Q421.3675 81.200836 420.89874 80.68521Q420.43 80.169586 419.64874 80.169586Q418.94562 80.169586 418.53937 80.46646L418.25812 80.700836L417.38312 80.482086ZM423.96124 86.46646L423.35187 86.044586Q423.89874 85.27896 423.93 84.450836L423.93 83.482086L424.9925 83.482086L424.9925 84.325836Q424.9925 84.919586 424.69562 85.513336Q424.39874 86.107086 423.96124 86.46646ZM426.38312 80.482086L426.82062 76.232086L431.19562 76.232086L431.19562 77.232086L427.7425 77.232086L427.47687 79.56021Q428.1175 79.18521 428.91437 79.18521Q430.07062 79.18521 430.75812 79.96646Q431.44562 80.732086 431.44562 82.044586Q431.44562 83.357086 430.72687 84.12271Q430.02374 84.888336 428.7425 84.888336Q427.6175 84.888336 426.89874 84.263336Q426.18 83.62271 426.08624 82.513336L427.10187 82.513336Q427.21124 83.24771 427.63312 83.62271Q428.055 83.99771 428.7425 83.99771Q429.4925 83.99771 429.93 83.482086Q430.3675 82.96646 430.3675 82.06021Q430.3675 81.200836 429.89874 80.68521Q429.43 80.169586 428.64874 80.169586Q427.94562 80.169586 427.53937 80.46646L427.25812 80.700836L426.38312 80.482086Z" fill-rule="nonzero"/><path stroke="#ffffff" stroke-width="3.0" stroke-linejoin="round" stroke-linecap="round" d="M521.32874 84.64809L521.32874 85.55434L521.1256 85.55434Q519.86 85.58559 519.11 86.31996Q518.36 87.03871 518.235 88.35121Q518.9225 87.58559 520.07874 87.58559Q521.1881 87.58559 521.86 88.36684Q522.53186 89.14809 522.53186 90.39809Q522.53186 91.71059 521.8131 92.50746Q521.09436 93.30434 519.8756 93.30434Q518.65686 93.30434 517.89124 92.36684Q517.14124 91.41371 517.14124 89.92934L517.14124 89.52309Q517.14124 87.16371 518.14124 85.91371Q519.14124 84.66371 521.1256 84.64809L521.32874 84.64809ZM519.90686 88.49184Q519.34436 88.49184 518.8756 88.81996Q518.40686 89.14809 518.21936 89.66371L518.21936 90.05434Q518.21936 91.11684 518.6881 91.75746Q519.1725 92.39809 519.8756 92.39809Q520.61 92.39809 521.03186 91.86684Q521.45374 91.31996 521.45374 90.44496Q521.45374 89.56996 521.03186 89.03871Q520.61 88.49184 519.90686 88.49184ZM525.64124 88.38246L526.45374 88.38246Q527.235 88.36684 527.6725 87.97621Q528.11 87.58559 528.11 86.91371Q528.11 85.41371 526.61 85.41371Q525.90686 85.41371 525.485 85.81996Q525.07874 86.22621 525.07874 86.88246L523.985 86.88246Q523.985 85.86684 524.71936 85.19496Q525.46936 84.52309 526.61 84.52309Q527.8131 84.52309 528.5006 85.16371Q529.1881 85.80434 529.1881 86.94496Q529.1881 87.50746 528.82874 88.02309Q528.46936 88.53871 527.84436 88.80434Q528.5475 89.02309 528.9225 89.53871Q529.3131 90.05434 529.3131 90.80434Q529.3131 91.94496 528.5631 92.63246Q527.8131 93.30434 526.61 93.30434Q525.4225 93.30434 524.65686 92.64809Q523.90686 91.99184 523.90686 90.92934L525.0006 90.92934Q525.0006 91.60121 525.4381 92.00746Q525.8756 92.41371 526.6256 92.41371Q527.40686 92.41371 527.8131 92.00746Q528.235 91.58559 528.235 90.81996Q528.235 90.08559 527.78186 89.69496Q527.32874 89.28871 526.45374 89.27309L525.64124 89.27309L525.64124 88.38246ZM531.14124 94.88246L530.53186 94.46059Q531.07874 93.69496 531.11 92.86684L531.11 91.89809L532.1725 91.89809L532.1725 92.74184Q532.1725 93.33559 531.8756 93.92934Q531.57874 94.52309 531.14124 94.88246ZM536.6256 93.17934L535.5475 93.17934L535.5475 85.96059L533.36 86.75746L533.36 85.77309L536.46936 84.60121L536.6256 84.60121L536.6256 93.17934Z" fill-rule="nonzero"/><path fill="#4285f4" d="M521.32874 84.64809L521.32874 85.55434L521.1256 85.55434Q519.86 85.58559 519.11 86.31996Q518.36 87.03871 518.235 88.35121Q518.9225 87.58559 520.07874 87.58559Q521.1881 87.58559 521.86 88.36684Q522.53186 89.14809 522.53186 90.39809Q522.53186 91.71059 521.8131 92.50746Q521.09436 93.30434 519.8756 93.30434Q518.65686 93.30434 517.89124 92.36684Q517.14124 91.41371 517.14124 89.92934L517.14124 89.52309Q517.14124 87.16371 518.14124 85.91371Q519.14124 84.66371 521.1256 84.64809L521.32874 84.64809ZM519.90686 88.49184Q519.34436 88.49184 518.8756 88.81996Q518.40686 89.14809 518.21936 89.66371L518.21936 90.05434Q518.21936 91.11684 518.6881 91.75746Q519.1725 92.39809 519.8756 92.39809Q520.61 92.39809 521.03186 91.86684Q521.45374 91.31996 521.45374 90.44496Q521.45374 89.56996 521.03186 89.03871Q520.61 88.49184 519.90686 88.49184ZM525.64124 88.38246L526.45374 88.38246Q527.235 88.36684 527.6725 87.97621Q528.11 87.58559 528.11 86.91371Q528.11 85.41371 526.61 85.41371Q525.90686 85.41371 525.485 85.81996Q525.07874 86.22621 525.07874 86.88246L523.985 86.88246Q523.985 85.86684 524.71936 85.19496Q525.46936 84.52309 526.61 84.52309Q527.8131 84.52309 528.5006 85.16371Q529.1881 85.80434 529.1881 86.94496Q529.1881 87.50746 528.82874 88.02309Q528.46936 88.53871 527.84436 88.80434Q528.5475 89.02309 528.9225 89.53871Q529.3131 90.05434 529.3131 90.80434Q529.3131 91.94496 528.5631 92.63246Q527.8131 93.30434 526.61 93.30434Q525.4225 93.30434 524.65686 92.64809Q523.90686 91.99184 523.90686 90.92934L525.0006 90.92934Q525.0006 91.60121 525.4381 92.00746Q525.8756 92.41371 526.6256 92.41371Q527.40686 92.41371 527.8131 92.00746Q528.235 91.58559 528.235 90.81996Q528.235 90.08559 527.78186 89.69496Q527.32874 89.28871 526.45374 89.27309L525.64124 89.27309L525.64124 88.38246ZM531.14124 94.88246L530.53186 94.46059Q531.07874 93.69496 531.11 92.86684L531.11 91.89809L532.1725 91.89809L532.1725 92.74184Q532.1725 93.33559 531.8756 93.92934Q531.57874 94.52309 531.14124 94.88246ZM536.6256 93.17934L535.5475 93.17934L535.5475 85.96059L533.36 86.75746L533.36 85.77309L536.46936 84.60121L536.6256 84.60121L536.6256 93.17934Z" fill-rule="nonzero"/><path stroke="#ffffff" stroke-width="3.0" stroke-linejoin="round" stroke-linecap="round" d="M96.405624 272.37L95.3275 272.37L95.3275 265.15125L93.14 265.94812L93.14 264.96375L96.249374 263.79187L96.405624 263.79187L96.405624 272.37ZM105.436874 272.37L99.843124 272.37L99.843124 271.58875L102.79625 268.3075Q103.4525 267.5575 103.7025 267.10437Q103.9525 266.63562 103.9525 266.13562Q103.9525 265.46375 103.54625 265.04187Q103.155624 264.60437 102.468124 264.60437Q101.67125 264.60437 101.218124 265.07312Q100.765 265.52625 100.765 266.35437L99.686874 266.35437Q99.686874 265.16687 100.436874 264.44812Q101.2025 263.71375 102.468124 263.71375Q103.67125 263.71375 104.35875 264.33875Q105.04625 264.96375 105.04625 266.01062Q105.04625 267.26062 103.436874 269.01062L101.155624 271.47937L105.436874 271.47937L105.436874 272.37Z" fill-rule="nonzero"/><path fill="#ea4335" d="M96.405624 272.37L95.3275 272.37L95.3275 265.15125L93.14 265.94812L93.14 264.96375L96.249374 263.79187L96.405624 263.79187L96.405624 272.37ZM105.436874 272.37L99.843124 272.37L99.843124 271.58875L102.79625 268.3075Q103.4525 267.5575 103.7025 267.10437Q103.9525 266.63562 103.9525 266.13562Q103.9525 265.46375 103.54625 265.04187Q103.155624 264.60437 102.468124 264.60437Q101.67125 264.60437 101.218124 265.07312Q100.765 265.52625 100.765 266.35437L99.686874 266.35437Q99.686874 265.16687 100.436874 264.44812Q101.2025 263.71375 102.468124 263.71375Q103.67125 263.71375 104.35875 264.33875Q105.04625 264.96375 105.04625 266.01062Q105.04625 267.26062 103.436874 269.01062L101.155624 271.47937L105.436874 271.47937L105.436874 272.37Z" fill-rule="nonzero"/><path stroke="#ffffff" stroke-width="3.0" stroke-linejoin="round" stroke-linecap="round" d="M199.08563 278.33133L198.0075 278.33133L198.0075 271.11258L195.82 271.90945L195.82 270.92508L198.92938 269.7532L199.08563 269.7532L199.08563 278.33133ZM207.8825 274.6907Q207.8825 276.59695 207.22626 277.53445Q206.58563 278.45633 205.195 278.45633Q203.83563 278.45633 203.17938 277.55008Q202.52313 276.64383 202.49188 274.83133L202.49188 273.39383Q202.49188 271.5032 203.1325 270.59695Q203.78876 269.67508 205.17938 269.67508Q206.55438 269.67508 207.21063 270.5657Q207.86688 271.4407 207.8825 273.28445L207.8825 274.6907ZM206.78876 273.20633Q206.78876 271.83133 206.39813 271.20633Q206.02313 270.5657 205.17938 270.5657Q204.35126 270.5657 203.96063 271.20633Q203.58563 271.83133 203.58563 273.1282L203.58563 274.86258Q203.58563 276.23758 203.97626 276.90945Q204.3825 277.5657 205.195 277.5657Q205.99188 277.5657 206.3825 276.9407Q206.77313 276.3157 206.78876 274.98758L206.78876 273.20633ZM209.60126 280.03445L208.99188 279.61258Q209.53876 278.84695 209.57 278.01883L209.57 277.05008L210.6325 277.05008L210.6325 277.89383Q210.6325 278.48758 210.33563 279.08133Q210.03876 279.67508 209.60126 280.03445ZM213.10126 273.53445L213.91376 273.53445Q214.695 273.51883 215.1325 273.1282Q215.57 272.73758 215.57 272.0657Q215.57 270.5657 214.07 270.5657Q213.36688 270.5657 212.945 270.97195Q212.53876 271.3782 212.53876 272.03445L211.445 272.03445Q211.445 271.01883 212.17938 270.34695Q212.92938 269.67508 214.07 269.67508Q215.27313 269.67508 215.96063 270.3157Q216.64813 270.95633 216.64813 272.09695Q216.64813 272.65945 216.28876 273.17508Q215.92938 273.6907 215.30438 273.95633Q216.0075 274.17508 216.3825 274.6907Q216.77313 275.20633 216.77313 275.95633Q216.77313 277.09695 216.02313 277.78445Q215.27313 278.45633 214.07 278.45633Q212.8825 278.45633 212.11688 277.80008Q211.36688 277.14383 211.36688 276.08133L212.46063 276.08133Q212.46063 276.7532 212.89813 277.15945Q213.33563 277.5657 214.08563 277.5657Q214.86688 277.5657 215.27313 277.15945Q215.695 276.73758 215.695 275.97195Q215.695 275.23758 215.24188 274.84695Q214.78876 274.4407 213.91376 274.42508L213.10126 274.42508L213.10126 273.53445Z" fill-rule="nonzero"/><path fill="#ea4335" d="M199.08563 278.33133L198.0075 278.33133L198.0075 271.11258L195.82 271.90945L195.82 270.92508L198.92938 269.7532L199.08563 269.7532L199.08563 278.33133ZM207.8825 274.6907Q207.8825 276.59695 207.22626 277.53445Q206.58563 278.45633 205.195 278.45633Q203.83563 278.45633 203.17938 277.55008Q202.52313 276.64383 202.49188 274.83133L202.49188 273.39383Q202.49188 271.5032 203.1325 270.59695Q203.78876 269.67508 205.17938 269.67508Q206.55438 269.67508 207.21063 270.5657Q207.86688 271.4407 207.8825 273.28445L207.8825 274.6907ZM206.78876 273.20633Q206.78876 271.83133 206.39813 271.20633Q206.02313 270.5657 205.17938 270.5657Q204.35126 270.5657 203.96063 271.20633Q203.58563 271.83133 203.58563 273.1282L203.58563 274.86258Q203.58563 276.23758 203.97626 276.90945Q204.3825 277.5657 205.195 277.5657Q205.99188 277.5657 206.3825 276.9407Q206.77313 276.3157 206.78876 274.98758L206.78876 273.20633ZM209.60126 280.03445L208.99188 279.61258Q209.53876 278.84695 209.57 278.01883L209.57 277.05008L210.6325 277.05008L210.6325 277.89383Q210.6325 278.48758 210.33563 279.08133Q210.03876 279.67508 209.60126 280.03445ZM213.10126 273.53445L213.91376 273.53445Q214.695 273.51883 215.1325 273.1282Q215.57 272.73758 215.57 272.0657Q215.57 270.5657 214.07 270.5657Q213.36688 270.5657 212.945 270.97195Q212.53876 271.3782 212.53876 272.03445L211.445 272.03445Q211.445 271.01883 212.17938 270.34695Q212.92938 269.67508 214.07 269.67508Q215.27313 269.67508 215.96063 270.3157Q216.64813 270.95633 216.64813 272.09695Q216.64813 272.65945 216.28876 273.17508Q215.92938 273.6907 215.30438 273.95633Q216.0075 274.17508 216.3825 274.6907Q216.77313 275.20633 216.77313 275.95633Q216.77313 277.09695 216.02313 277.78445Q215.27313 278.45633 214.07 278.45633Q212.8825 278.45633 212.11688 277.80008Q211.36688 277.14383 211.36688 276.08133L212.46063 276.08133Q212.46063 276.7532 212.89813 277.15945Q213.33563 277.5657 214.08563 277.5657Q214.86688 277.5657 215.27313 277.15945Q215.695 276.73758 215.695 275.97195Q215.695 275.23758 215.24188 274.84695Q214.78876 274.4407 213.91376 274.42508L213.10126 274.42508L213.10126 273.53445Z" fill-rule="nonzero"/><path stroke="#ffffff" stroke-width="3.0" stroke-linejoin="round" stroke-linecap="round" d="M310.35938 276.33466Q310.03125 276.7409 309.54688 276.9909Q309.07812 277.22528 308.51562 277.22528Q307.78125 277.22528 307.23438 276.8659Q306.6875 276.50653 306.39062 275.85028Q306.09375 275.1784 306.09375 274.38153Q306.09375 273.53778 306.40625 272.85028Q306.73438 272.16278 307.32812 271.8034Q307.9375 271.4284 308.73438 271.4284Q310.0 271.4284 310.71875 272.38153Q311.45312 273.33466 311.45312 274.95966L311.45312 275.27216Q311.45312 277.77216 310.46875 278.91278Q309.48438 280.0534 307.5 280.08466L307.28125 280.08466L307.28125 279.1784L307.51562 279.1784Q308.85938 279.14716 309.57812 278.47528Q310.29688 277.8034 310.35938 276.33466ZM308.6875 276.33466Q309.23438 276.33466 309.6875 276.00653Q310.15625 275.66278 310.375 275.1784L310.375 274.7409Q310.375 273.6784 309.90625 273.00653Q309.4375 272.33466 308.73438 272.33466Q308.01562 272.33466 307.57812 272.88153Q307.15625 273.4284 307.15625 274.33466Q307.15625 275.20966 307.5625 275.77216Q307.98438 276.33466 308.6875 276.33466ZM313.28125 281.78778L312.67188 281.3659Q313.21875 280.60028 313.25 279.77216L313.25 278.8034L314.3125 278.8034L314.3125 279.64716Q314.3125 280.2409 314.01562 280.83466Q313.71875 281.4284 313.28125 281.78778ZM320.39062 273.77216Q320.39062 274.41278 320.04688 274.91278Q319.70312 275.41278 319.14062 275.69403Q319.79688 275.97528 320.1875 276.53778Q320.57812 277.08466 320.57812 277.78778Q320.57812 278.88153 319.82812 279.5534Q319.09375 280.20966 317.875 280.20966Q316.64062 280.20966 315.89062 279.5534Q315.15625 278.88153 315.15625 277.78778Q315.15625 277.08466 315.53125 276.53778Q315.90625 275.97528 316.57812 275.69403Q316.01562 275.41278 315.6875 274.91278Q315.35938 274.41278 315.35938 273.77216Q315.35938 272.69403 316.04688 272.06903Q316.73438 271.4284 317.875 271.4284Q319.0 271.4284 319.6875 272.06903Q320.39062 272.69403 320.39062 273.77216ZM319.5 277.75653Q319.5 277.03778 319.04688 276.60028Q318.59375 276.14716 317.85938 276.14716Q317.125 276.14716 316.67188 276.60028Q316.23438 277.03778 316.23438 277.77216Q316.23438 278.4909 316.67188 278.91278Q317.10938 279.31903 317.875 279.31903Q318.625 279.31903 319.0625 278.89716Q319.5 278.47528 319.5 277.75653ZM317.875 272.31903Q317.23438 272.31903 316.82812 272.72528Q316.4375 273.1159 316.4375 273.8034Q316.4375 274.44403 316.82812 274.85028Q317.21875 275.25653 317.85938 275.25653Q318.51562 275.25653 318.90625 274.85028Q319.29688 274.44403 319.29688 273.8034Q319.29688 273.14716 318.89062 272.7409Q318.48438 272.31903 317.875 272.31903Z" fill-rule="nonzero"/><path fill="#ea4335" d="M310.35938 276.33466Q310.03125 276.7409 309.54688 276.9909Q309.07812 277.22528 308.51562 277.22528Q307.78125 277.22528 307.23438 276.8659Q306.6875 276.50653 306.39062 275.85028Q306.09375 275.1784 306.09375 274.38153Q306.09375 273.53778 306.40625 272.85028Q306.73438 272.16278 307.32812 271.8034Q307.9375 271.4284 308.73438 271.4284Q310.0 271.4284 310.71875 272.38153Q311.45312 273.33466 311.45312 274.95966L311.45312 275.27216Q311.45312 277.77216 310.46875 278.91278Q309.48438 280.0534 307.5 280.08466L307.28125 280.08466L307.28125 279.1784L307.51562 279.1784Q308.85938 279.14716 309.57812 278.47528Q310.29688 277.8034 310.35938 276.33466ZM308.6875 276.33466Q309.23438 276.33466 309.6875 276.00653Q310.15625 275.66278 310.375 275.1784L310.375 274.7409Q310.375 273.6784 309.90625 273.00653Q309.4375 272.33466 308.73438 272.33466Q308.01562 272.33466 307.57812 272.88153Q307.15625 273.4284 307.15625 274.33466Q307.15625 275.20966 307.5625 275.77216Q307.98438 276.33466 308.6875 276.33466ZM313.28125 281.78778L312.67188 281.3659Q313.21875 280.60028 313.25 279.77216L313.25 278.8034L314.3125 278.8034L314.3125 279.64716Q314.3125 280.2409 314.01562 280.83466Q313.71875 281.4284 313.28125 281.78778ZM320.39062 273.77216Q320.39062 274.41278 320.04688 274.91278Q319.70312 275.41278 319.14062 275.69403Q319.79688 275.97528 320.1875 276.53778Q320.57812 277.08466 320.57812 277.78778Q320.57812 278.88153 319.82812 279.5534Q319.09375 280.20966 317.875 280.20966Q316.64062 280.20966 315.89062 279.5534Q315.15625 278.88153 315.15625 277.78778Q315.15625 277.08466 315.53125 276.53778Q315.90625 275.97528 316.57812 275.69403Q316.01562 275.41278 315.6875 274.91278Q315.35938 274.41278 315.35938 273.77216Q315.35938 272.69403 316.04688 272.06903Q316.73438 271.4284 317.875 271.4284Q319.0 271.4284 319.6875 272.06903Q320.39062 272.69403 320.39062 273.77216ZM319.5 277.75653Q319.5 277.03778 319.04688 276.60028Q318.59375 276.14716 317.85938 276.14716Q317.125 276.14716 316.67188 276.60028Q316.23438 277.03778 316.23438 277.77216Q316.23438 278.4909 316.67188 278.91278Q317.10938 279.31903 317.875 279.31903Q318.625 279.31903 319.0625 278.89716Q319.5 278.47528 319.5 277.75653ZM317.875 272.31903Q317.23438 272.31903 316.82812 272.72528Q316.4375 273.1159 316.4375 273.8034Q316.4375 274.44403 316.82812 274.85028Q317.21875 275.25653 317.85938 275.25653Q318.51562 275.25653 318.90625 274.85028Q319.29688 274.44403 319.29688 273.8034Q319.29688 273.14716 318.89062 272.7409Q318.48438 272.31903 317.875 272.31903Z" fill-rule="nonzero"/><path stroke="#ffffff" stroke-width="3.0" stroke-linejoin="round" stroke-linecap="round" d="M417.53937 277.036Q417.21124 277.44226 416.72687 277.69226Q416.25812 277.92664 415.69562 277.92664Q414.96124 277.92664 414.41437 277.56726Q413.8675 277.2079 413.57062 276.55164Q413.27374 275.87976 413.27374 275.0829Q413.27374 274.23914 413.58624 273.55164Q413.91437 272.86414 414.50812 272.50476Q415.1175 272.12976 415.91437 272.12976Q417.18 272.12976 417.89874 273.0829Q418.63312 274.036 418.63312 275.661L418.63312 275.9735Q418.63312 278.4735 417.64874 279.61414Q416.66437 280.75476 414.68 280.786L414.46124 280.786L414.46124 279.87976L414.69562 279.87976Q416.03937 279.8485 416.75812 279.17664Q417.47687 278.50476 417.53937 277.036ZM415.8675 277.036Q416.41437 277.036 416.8675 276.7079Q417.33624 276.36414 417.555 275.87976L417.555 275.44226Q417.555 274.37976 417.08624 273.7079Q416.6175 273.036 415.91437 273.036Q415.19562 273.036 414.75812 273.5829Q414.33624 274.12976 414.33624 275.036Q414.33624 275.911 414.7425 276.4735Q415.16437 277.036 415.8675 277.036ZM420.46124 282.48914L419.85187 282.06726Q420.39874 281.30164 420.43 280.4735L420.43 279.50476L421.4925 279.50476L421.4925 280.3485Q421.4925 280.94226 421.19562 281.536Q420.89874 282.12976 420.46124 282.48914ZM426.64874 272.25476L426.64874 273.161L426.44562 273.161Q425.18 273.19226 424.43 273.92664Q423.68 274.6454 423.555 275.9579Q424.2425 275.19226 425.39874 275.19226Q426.50812 275.19226 427.18 275.9735Q427.85187 276.75476 427.85187 278.00476Q427.85187 279.31726 427.13312 280.11414Q426.41437 280.911 425.19562 280.911Q423.97687 280.911 423.21124 279.9735Q422.46124 279.0204 422.46124 277.536L422.46124 277.12976Q422.46124 274.7704 423.46124 273.5204Q424.46124 272.2704 426.44562 272.25476L426.64874 272.25476ZM425.22687 276.0985Q424.66437 276.0985 424.19562 276.42664Q423.72687 276.75476 423.53937 277.2704L423.53937 277.661Q423.53937 278.7235 424.00812 279.36414Q424.4925 280.00476 425.19562 280.00476Q425.93 280.00476 426.35187 279.4735Q426.77374 278.92664 426.77374 278.05164Q426.77374 277.17664 426.35187 276.6454Q425.93 276.0985 425.22687 276.0985Z" fill-rule="nonzero"/><path fill="#ea4335" d="M417.53937 277.036Q417.21124 277.44226 416.72687 277.69226Q416.25812 277.92664 415.69562 277.92664Q414.96124 277.92664 414.41437 277.56726Q413.8675 277.2079 413.57062 276.55164Q413.27374 275.87976 413.27374 275.0829Q413.27374 274.23914 413.58624 273.55164Q413.91437 272.86414 414.50812 272.50476Q415.1175 272.12976 415.91437 272.12976Q417.18 272.12976 417.89874 273.0829Q418.63312 274.036 418.63312 275.661L418.63312 275.9735Q418.63312 278.4735 417.64874 279.61414Q416.66437 280.75476 414.68 280.786L414.46124 280.786L414.46124 279.87976L414.69562 279.87976Q416.03937 279.8485 416.75812 279.17664Q417.47687 278.50476 417.53937 277.036ZM415.8675 277.036Q416.41437 277.036 416.8675 276.7079Q417.33624 276.36414 417.555 275.87976L417.555 275.44226Q417.555 274.37976 417.08624 273.7079Q416.6175 273.036 415.91437 273.036Q415.19562 273.036 414.75812 273.5829Q414.33624 274.12976 414.33624 275.036Q414.33624 275.911 414.7425 276.4735Q415.16437 277.036 415.8675 277.036ZM420.46124 282.48914L419.85187 282.06726Q420.39874 281.30164 420.43 280.4735L420.43 279.50476L421.4925 279.50476L421.4925 280.3485Q421.4925 280.94226 421.19562 281.536Q420.89874 282.12976 420.46124 282.48914ZM426.64874 272.25476L426.64874 273.161L426.44562 273.161Q425.18 273.19226 424.43 273.92664Q423.68 274.6454 423.555 275.9579Q424.2425 275.19226 425.39874 275.19226Q426.50812 275.19226 427.18 275.9735Q427.85187 276.75476 427.85187 278.00476Q427.85187 279.31726 427.13312 280.11414Q426.41437 280.911 425.19562 280.911Q423.97687 280.911 423.21124 279.9735Q422.46124 279.0204 422.46124 277.536L422.46124 277.12976Q422.46124 274.7704 423.46124 273.5204Q424.46124 272.2704 426.44562 272.25476L426.64874 272.25476ZM425.22687 276.0985Q424.66437 276.0985 424.19562 276.42664Q423.72687 276.75476 423.53937 277.2704L423.53937 277.661Q423.53937 278.7235 424.00812 279.36414Q424.4925 280.00476 425.19562 280.00476Q425.93 280.00476 426.35187 279.4735Q426.77374 278.92664 426.77374 278.05164Q426.77374 277.17664 426.35187 276.6454Q425.93 276.0985 425.22687 276.0985Z" fill-rule="nonzero"/><path stroke="#ffffff" stroke-width="3.0" stroke-linejoin="round" stroke-linecap="round" d="M524.71936 276.33466Q524.39124 276.7409 523.90686 276.9909Q523.4381 277.22528 522.8756 277.22528Q522.14124 277.22528 521.59436 276.8659Q521.0475 276.50653 520.7506 275.85028Q520.45374 275.1784 520.45374 274.38153Q520.45374 273.53778 520.76624 272.85028Q521.09436 272.16278 521.6881 271.8034Q522.2975 271.4284 523.09436 271.4284Q524.36 271.4284 525.07874 272.38153Q525.8131 273.33466 525.8131 274.95966L525.8131 275.27216Q525.8131 277.77216 524.82874 278.91278Q523.84436 280.0534 521.86 280.08466L521.64124 280.08466L521.64124 279.1784L521.8756 279.1784Q523.21936 279.14716 523.9381 278.47528Q524.65686 277.8034 524.71936 276.33466ZM523.0475 276.33466Q523.59436 276.33466 524.0475 276.00653Q524.51624 275.66278 524.735 275.1784L524.735 274.7409Q524.735 273.6784 524.26624 273.00653Q523.7975 272.33466 523.09436 272.33466Q522.3756 272.33466 521.9381 272.88153Q521.51624 273.4284 521.51624 274.33466Q521.51624 275.20966 521.9225 275.77216Q522.34436 276.33466 523.0475 276.33466ZM527.64124 281.78778L527.03186 281.3659Q527.57874 280.60028 527.61 279.77216L527.61 278.8034L528.6725 278.8034L528.6725 279.64716Q528.6725 280.2409 528.3756 280.83466Q528.07874 281.4284 527.64124 281.78778ZM534.7506 273.77216Q534.7506 274.41278 534.40686 274.91278Q534.0631 275.41278 533.5006 275.69403Q534.15686 275.97528 534.5475 276.53778Q534.9381 277.08466 534.9381 277.78778Q534.9381 278.88153 534.1881 279.5534Q533.45374 280.20966 532.235 280.20966Q531.0006 280.20966 530.2506 279.5534Q529.51624 278.88153 529.51624 277.78778Q529.51624 277.08466 529.89124 276.53778Q530.26624 275.97528 530.9381 275.69403Q530.3756 275.41278 530.0475 274.91278Q529.71936 274.41278 529.71936 273.77216Q529.71936 272.69403 530.40686 272.06903Q531.09436 271.4284 532.235 271.4284Q533.36 271.4284 534.0475 272.06903Q534.7506 272.69403 534.7506 273.77216ZM533.86 277.75653Q533.86 277.03778 533.40686 276.60028Q532.95374 276.14716 532.21936 276.14716Q531.485 276.14716 531.03186 276.60028Q530.59436 277.03778 530.59436 277.77216Q530.59436 278.4909 531.03186 278.91278Q531.46936 279.31903 532.235 279.31903Q532.985 279.31903 533.4225 278.89716Q533.86 278.47528 533.86 277.75653ZM532.235 272.31903Q531.59436 272.31903 531.1881 272.72528Q530.7975 273.1159 530.7975 273.8034Q530.7975 274.44403 531.1881 274.85028Q531.57874 275.25653 532.21936 275.25653Q532.8756 275.25653 533.26624 274.85028Q533.65686 274.44403 533.65686 273.8034Q533.65686 273.14716 533.2506 272.7409Q532.84436 272.31903 532.235 272.31903Z" fill-rule="nonzero"/><path fill="#ea4335" d="M524.71936 276.33466Q524.39124 276.7409 523.90686 276.9909Q523.4381 277.22528 522.8756 277.22528Q522.14124 277.22528 521.59436 276.8659Q521.0475 276.50653 520.7506 275.85028Q520.45374 275.1784 520.45374 274.38153Q520.45374 273.53778 520.76624 272.85028Q521.09436 272.16278 521.6881 271.8034Q522.2975 271.4284 523.09436 271.4284Q524.36 271.4284 525.07874 272.38153Q525.8131 273.33466 525.8131 274.95966L525.8131 275.27216Q525.8131 277.77216 524.82874 278.91278Q523.84436 280.0534 521.86 280.08466L521.64124 280.08466L521.64124 279.1784L521.8756 279.1784Q523.21936 279.14716 523.9381 278.47528Q524.65686 277.8034 524.71936 276.33466ZM523.0475 276.33466Q523.59436 276.33466 524.0475 276.00653Q524.51624 275.66278 524.735 275.1784L524.735 274.7409Q524.735 273.6784 524.26624 273.00653Q523.7975 272.33466 523.09436 272.33466Q522.3756 272.33466 521.9381 272.88153Q521.51624 273.4284 521.51624 274.33466Q521.51624 275.20966 521.9225 275.77216Q522.34436 276.33466 523.0475 276.33466ZM527.64124 281.78778L527.03186 281.3659Q527.57874 280.60028 527.61 279.77216L527.61 278.8034L528.6725 278.8034L528.6725 279.64716Q528.6725 280.2409 528.3756 280.83466Q528.07874 281.4284 527.64124 281.78778ZM534.7506 273.77216Q534.7506 274.41278 534.40686 274.91278Q534.0631 275.41278 533.5006 275.69403Q534.15686 275.97528 534.5475 276.53778Q534.9381 277.08466 534.9381 277.78778Q534.9381 278.88153 534.1881 279.5534Q533.45374 280.20966 532.235 280.20966Q531.0006 280.20966 530.2506 279.5534Q529.51624 278.88153 529.51624 277.78778Q529.51624 277.08466 529.89124 276.53778Q530.26624 275.97528 530.9381 275.69403Q530.3756 275.41278 530.0475 274.91278Q529.71936 274.41278 529.71936 273.77216Q529.71936 272.69403 530.40686 272.06903Q531.09436 271.4284 532.235 271.4284Q533.36 271.4284 534.0475 272.06903Q534.7506 272.69403 534.7506 273.77216ZM533.86 277.75653Q533.86 277.03778 533.40686 276.60028Q532.95374 276.14716 532.21936 276.14716Q531.485 276.14716 531.03186 276.60028Q530.59436 277.03778 530.59436 277.77216Q530.59436 278.4909 531.03186 278.91278Q531.46936 279.31903 532.235 279.31903Q532.985 279.31903 533.4225 278.89716Q533.86 278.47528 533.86 277.75653ZM532.235 272.31903Q531.59436 272.31903 531.1881 272.72528Q530.7975 273.1159 530.7975 273.8034Q530.7975 274.44403 531.1881 274.85028Q531.57874 275.25653 532.21936 275.25653Q532.8756 275.25653 533.26624 274.85028Q533.65686 274.44403 533.65686 273.8034Q533.65686 273.14716 533.2506 272.7409Q532.84436 272.31903 532.235 272.31903Z" fill-rule="nonzero"/><path fill="#000000" d="M33.05 332.21564Q33.05 330.6844 33.3625 329.7625Q33.675 328.825 34.284374 328.325Q34.909374 327.825 35.846874 327.825Q36.534374 327.825 37.05 328.10626Q37.58125 328.3875 37.925 328.91876Q38.26875 329.4344 38.45625 330.1844Q38.64375 330.9344 38.64375 332.21564Q38.64375 333.73126 38.33125 334.65314Q38.034374 335.575 37.409374 336.09064Q36.8 336.59064 35.846874 336.59064Q34.6125 336.59064 33.89375 335.7Q33.05 334.6375 33.05 332.21564ZM34.128124 332.21564Q34.128124 334.325 34.628124 335.02814Q35.128124 335.73126 35.846874 335.73126Q36.58125 335.73126 37.065624 335.02814Q37.565624 334.325 37.565624 332.21564Q37.565624 330.09064 37.065624 329.40314Q36.58125 328.7 35.83125 328.7Q35.1125 328.7 34.675 329.3094Q34.128124 330.09064 34.128124 332.21564Z" fill-rule="nonzero"/><path fill="#000000" d="M31.596874 265.30106L31.596874 266.31668L25.909374 266.31668Q25.909374 265.94168 26.034374 265.5823Q26.253124 265.00418 26.721874 264.44168Q27.20625 263.87918 28.1125 263.1448Q29.51875 261.98856 30.003124 261.31668Q30.503124 260.6448 30.503124 260.05106Q30.503124 259.42606 30.05 259.00418Q29.596874 258.56668 28.878124 258.56668Q28.1125 258.56668 27.659374 259.0198Q27.20625 259.47293 27.190624 260.28543L26.1125 260.17606Q26.221874 258.9573 26.940624 258.3323Q27.675 257.69168 28.909374 257.69168Q30.14375 257.69168 30.8625 258.37918Q31.58125 259.06668 31.58125 260.0823Q31.58125 260.59793 31.3625 261.09793Q31.159374 261.5823 30.659374 262.1448Q30.175 262.69168 29.05 263.6448Q28.096874 264.44168 27.815624 264.73856Q27.55 265.0198 27.378124 265.30106L31.596874 265.30106ZM33.05 262.0823Q33.05 260.55106 33.3625 259.62918Q33.675 258.69168 34.284374 258.19168Q34.909374 257.69168 35.846874 257.69168Q36.534374 257.69168 37.05 257.97293Q37.58125 258.25418 37.925 258.78543Q38.26875 259.30106 38.45625 260.05106Q38.64375 260.80106 38.64375 262.0823Q38.64375 263.59793 38.33125 264.5198Q38.034374 265.44168 37.409374 265.9573Q36.8 266.4573 35.846874 266.4573Q34.6125 266.4573 33.89375 265.56668Q33.05 264.50418 33.05 262.0823ZM34.128124 262.0823Q34.128124 264.19168 34.628124 264.8948Q35.128124 265.59793 35.846874 265.59793Q36.58125 265.59793 37.065624 264.8948Q37.565624 264.19168 37.565624 262.0823Q37.565624 259.9573 37.065624 259.2698Q36.58125 258.56668 35.83125 258.56668Q35.1125 258.56668 34.675 259.17606Q34.128124 259.9573 34.128124 262.0823Z" fill-rule="nonzero"/><path fill="#000000" d="M29.425 196.18333L29.425 194.12083L25.70625 194.12083L25.70625 193.15208L29.628124 187.58958L30.4875 187.58958L30.4875 193.15208L31.64375 193.15208L31.64375 194.12083L30.4875 194.12083L30.4875 196.18333L29.425 196.18333ZM29.425 193.15208L29.425 189.29271L26.7375 193.15208L29.425 193.15208ZM33.05 191.94896Q33.05 190.41771 33.3625 189.49583Q33.675 188.55833 34.284374 188.05833Q34.909374 187.55833 35.846874 187.55833Q36.534374 187.55833 37.05 187.83958Q37.58125 188.12083 37.925 188.65208Q38.26875 189.16771 38.45625 189.91771Q38.64375 190.66771 38.64375 191.94896Q38.64375 193.46458 38.33125 194.38646Q38.034374 195.30833 37.409374 195.82396Q36.8 196.32396 35.846874 196.32396Q34.6125 196.32396 33.89375 195.43333Q33.05 194.37083 33.05 191.94896ZM34.128124 191.94896Q34.128124 194.05833 34.628124 194.76146Q35.128124 195.46458 35.846874 195.46458Q36.58125 195.46458 37.065624 194.76146Q37.565624 194.05833 37.565624 191.94896Q37.565624 189.82396 37.065624 189.13646Q36.58125 188.43333 35.83125 188.43333Q35.1125 188.43333 34.675 189.04271Q34.128124 189.82396 34.128124 191.94896Z" fill-rule="nonzero"/><path fill="#000000" d="M31.51875 119.56563L30.471874 119.64375Q30.33125 119.01875 30.08125 118.7375Q29.64375 118.28438 29.01875 118.28438Q28.51875 118.28438 28.128124 118.56563Q27.64375 118.94063 27.346874 119.64375Q27.065624 120.33125 27.05 121.6125Q27.425 121.03438 27.971874 120.75313Q28.534374 120.47188 29.14375 120.47188Q30.190624 120.47188 30.925 121.25313Q31.675 122.03438 31.675 123.25313Q31.675 124.06563 31.315624 124.76875Q30.971874 125.45625 30.3625 125.83125Q29.753124 126.19063 28.9875 126.19063Q27.659374 126.19063 26.83125 125.22188Q26.003124 124.25313 26.003124 122.03438Q26.003124 119.53438 26.925 118.40938Q27.721874 117.425 29.08125 117.425Q30.096874 117.425 30.7375 118.00313Q31.39375 118.56563 31.51875 119.56563ZM27.221874 123.26875Q27.221874 123.81563 27.440624 124.31563Q27.675 124.8 28.08125 125.06563Q28.503124 125.33125 28.971874 125.33125Q29.628124 125.33125 30.1125 124.8Q30.596874 124.25313 30.596874 123.33125Q30.596874 122.44063 30.1125 121.925Q29.64375 121.40938 28.925 121.40938Q28.20625 121.40938 27.70625 121.925Q27.221874 122.44063 27.221874 123.26875ZM33.05 121.81563Q33.05 120.28438 33.3625 119.3625Q33.675 118.425 34.284374 117.925Q34.909374 117.425 35.846874 117.425Q36.534374 117.425 37.05 117.70625Q37.58125 117.9875 37.925 118.51875Q38.26875 119.03438 38.45625 119.78438Q38.64375 120.53438 38.64375 121.81563Q38.64375 123.33125 38.33125 124.25313Q38.034374 125.175 37.409374 125.69063Q36.8 126.19063 35.846874 126.19063Q34.6125 126.19063 33.89375 125.3Q33.05 124.2375 33.05 121.81563ZM34.128124 121.81563Q34.128124 123.925 34.628124 124.62813Q35.128124 125.33125 35.846874 125.33125Q36.58125 125.33125 37.065624 124.62813Q37.565624 123.925 37.565624 121.81563Q37.565624 119.69063 37.065624 119.00313Q36.58125 118.3 35.83125 118.3Q35.1125 118.3 34.675 118.90938Q34.128124 119.69063 34.128124 121.81563Z" fill-rule="nonzero"/><path fill="#000000" d="M27.675 51.260418Q27.01875 51.010418 26.690624 50.572918Q26.378124 50.119793 26.378124 49.510418Q26.378124 48.572918 27.05 47.932293Q27.7375 47.291668 28.846874 47.291668Q29.971874 47.291668 30.659374 47.947918Q31.346874 48.604168 31.346874 49.541668Q31.346874 50.135418 31.034374 50.572918Q30.721874 51.010418 30.08125 51.260418Q30.878124 51.510418 31.284374 52.088543Q31.690624 52.666668 31.690624 53.463543Q31.690624 54.557293 30.909374 55.307293Q30.14375 56.057293 28.8625 56.057293Q27.596874 56.057293 26.815624 55.307293Q26.034374 54.557293 26.034374 53.432293Q26.034374 52.588543 26.45625 52.026043Q26.89375 51.463543 27.675 51.260418ZM27.45625 49.463543Q27.45625 50.072918 27.846874 50.463543Q28.253124 50.854168 28.878124 50.854168Q29.4875 50.854168 29.878124 50.479168Q30.26875 50.088543 30.26875 49.526043Q30.26875 48.947918 29.8625 48.557293Q29.45625 48.151043 28.8625 48.151043Q28.253124 48.151043 27.846874 48.541668Q27.45625 48.932293 27.45625 49.463543ZM27.128124 53.432293Q27.128124 53.885418 27.33125 54.307293Q27.55 54.729168 27.971874 54.963543Q28.39375 55.197918 28.878124 55.197918Q29.628124 55.197918 30.1125 54.713543Q30.6125 54.229168 30.6125 53.479168Q30.6125 52.713543 30.1125 52.213543Q29.6125 51.713543 28.846874 51.713543Q28.096874 51.713543 27.6125 52.213543Q27.128124 52.697918 27.128124 53.432293ZM33.05 51.682293Q33.05 50.151043 33.3625 49.229168Q33.675 48.291668 34.284374 47.791668Q34.909374 47.291668 35.846874 47.291668Q36.534374 47.291668 37.05 47.572918Q37.58125 47.854168 37.925 48.385418Q38.26875 48.901043 38.45625 49.651043Q38.64375 50.401043 38.64375 51.682293Q38.64375 53.197918 38.33125 54.119793Q38.034374 55.041668 37.409374 55.557293Q36.8 56.057293 35.846874 56.057293Q34.6125 56.057293 33.89375 55.166668Q33.05 54.104168 33.05 51.682293ZM34.128124 51.682293Q34.128124 53.791668 34.628124 54.494793Q35.128124 55.197918 35.846874 55.197918Q36.58125 55.197918 37.065624 54.494793Q37.565624 53.791668 37.565624 51.682293Q37.565624 49.557293 37.065624 48.869793Q36.58125 48.166668 35.83125 48.166668Q35.1125 48.166668 34.675 48.776043Q34.128124 49.557293 34.128124 51.682293Z" fill-rule="nonzero"/><path fill="#000000" d="M72.60875 349.45L71.561874 349.45L71.561874 342.73126Q71.17125 343.09064 70.54625 343.46564Q69.936874 343.825 69.4525 343.9969L69.4525 342.98126Q70.3275 342.5594 70.98375 341.98126Q71.655624 341.3875 71.936874 340.825L72.60875 340.825L72.60875 349.45ZM75.64 347.1844L76.7025 347.04376Q76.874374 347.9344 77.311874 348.34064Q77.749374 348.73126 78.374374 348.73126Q79.124374 348.73126 79.64 348.21564Q80.155624 347.7 80.155624 346.9344Q80.155624 346.21564 79.67125 345.7469Q79.2025 345.2625 78.468124 345.2625Q78.17125 345.2625 77.718124 345.3875L77.843124 344.45Q77.9525 344.46564 78.015 344.46564Q78.686874 344.46564 79.218124 344.1219Q79.765 343.7625 79.765 343.02814Q79.765 342.45 79.374374 342.075Q78.98375 341.6844 78.35875 341.6844Q77.749374 341.6844 77.3275 342.075Q76.92125 342.46564 76.811874 343.23126L75.749374 343.04376Q75.936874 341.9969 76.624374 341.41876Q77.311874 340.825 78.3275 340.825Q79.030624 340.825 79.624374 341.1375Q80.218124 341.4344 80.530624 341.95Q80.843124 342.46564 80.843124 343.0594Q80.843124 343.60626 80.54625 344.075Q80.249374 344.52814 79.67125 344.79376Q80.42125 344.96564 80.843124 345.52814Q81.265 346.075 81.265 346.91876Q81.265 348.04376 80.436874 348.825Q79.624374 349.60626 78.374374 349.60626Q77.249374 349.60626 76.499374 348.9344Q75.749374 348.2469 75.64 347.1844ZM82.14 349.59064L84.624374 340.71564L85.468124 340.71564L82.98375 349.59064L82.14 349.59064ZM89.60875 349.45L88.561874 349.45L88.561874 342.73126Q88.17125 343.09064 87.54625 343.46564Q86.936874 343.825 86.4525 343.9969L86.4525 342.98126Q87.3275 342.5594 87.98375 341.98126Q88.655624 341.3875 88.936874 340.825L89.60875 340.825L89.60875 349.45ZM98.186874 348.4344L98.186874 349.45L92.499374 349.45Q92.499374 349.075 92.624374 348.71564Q92.843124 348.1375 93.311874 347.575Q93.79625 347.0125 94.7025 346.27814Q96.10875 345.1219 96.593124 344.45Q97.093124 343.77814 97.093124 343.1844Q97.093124 342.5594 96.64 342.1375Q96.186874 341.7 95.468124 341.7Q94.7025 341.7 94.249374 342.15314Q93.79625 342.60626 93.780624 343.41876L92.7025 343.3094Q92.811874 342.09064 93.530624 341.46564Q94.265 340.825 95.499374 340.825Q96.73375 340.825 97.4525 341.5125Q98.17125 342.2 98.17125 343.21564Q98.17125 343.73126 97.9525 344.23126Q97.749374 344.71564 97.249374 345.27814Q96.765 345.825 95.64 346.77814Q94.686874 347.575 94.405624 347.8719Q94.14 348.15314 93.968124 348.4344L98.186874 348.4344ZM99.14 349.59064L101.624374 340.71564L102.468124 340.71564L99.98375 349.59064L99.14 349.59064ZM108.186874 348.4344L108.186874 349.45L102.499374 349.45Q102.499374 349.075 102.624374 348.71564Q102.843124 348.1375 103.311874 347.575Q103.79625 347.0125 104.7025 346.27814Q106.10875 345.1219 106.593124 344.45Q107.093124 343.77814 107.093124 343.1844Q107.093124 342.5594 106.64 342.1375Q106.186874 341.7 105.468124 341.7Q104.7025 341.7 104.249374 342.15314Q103.79625 342.60626 103.780624 343.41876L102.7025 343.3094Q102.811874 342.09064 103.530624 341.46564Q104.265 340.825 105.499374 340.825Q106.73375 340.825 107.4525 341.5125Q108.17125 342.2 108.17125 343.21564Q108.17125 343.73126 107.9525 344.23126Q107.749374 344.71564 107.249374 345.27814Q106.765 345.825 105.64 346.77814Q104.686874 347.575 104.405624 347.8719Q104.14 348.15314 103.968124 348.4344L108.186874 348.4344ZM109.64 345.21564Q109.64 343.6844 109.9525 342.7625Q110.265 341.825 110.874374 341.325Q111.499374 340.825 112.436874 340.825Q113.124374 340.825 113.64 341.10626Q114.17125 341.3875 114.515 341.91876Q114.85875 342.4344 115.04625 343.1844Q115.23375 343.9344 115.23375 345.21564Q115.23375 346.73126 114.92125 347.65314Q114.624374 348.575 113.999374 349.09064Q113.39 349.59064 112.436874 349.59064Q111.2025 349.59064 110.48375 348.7Q109.64 347.6375 109.64 345.21564ZM110.718124 345.21564Q110.718124 347.325 111.218124 348.02814Q111.718124 348.73126 112.436874 348.73126Q113.17125 348.73126 113.655624 348.02814Q114.155624 347.325 114.155624 345.21564Q114.155624 343.09064 113.655624 342.40314Q113.17125 341.7 112.42125 341.7Q111.7025 341.7 111.265 342.3094Q110.718124 343.09064 110.718124 345.21564ZM122.186874 348.4344L122.186874 349.45L116.499374 349.45Q116.499374 349.075 116.624374 348.71564Q116.843124 348.1375 117.311874 347.575Q117.79625 347.0125 118.7025 346.27814Q120.10875 345.1219 120.593124 344.45Q121.093124 343.77814 121.093124 343.1844Q121.093124 342.5594 120.64 342.1375Q120.186874 341.7 119.468124 341.7Q118.7025 341.7 118.249374 342.15314Q117.79625 342.60626 117.780624 343.41876L116.7025 343.3094Q116.811874 342.09064 117.530624 341.46564Q118.265 340.825 119.499374 340.825Q120.73375 340.825 121.4525 341.5125Q122.17125 342.2 122.17125 343.21564Q122.17125 343.73126 121.9525 344.23126Q121.749374 344.71564 121.249374 345.27814Q120.765 345.825 119.64 346.77814Q118.686874 347.575 118.405624 347.8719Q118.14 348.15314 117.968124 348.4344L122.186874 348.4344ZM123.64 345.21564Q123.64 343.6844 123.9525 342.7625Q124.265 341.825 124.874374 341.325Q125.499374 340.825 126.436874 340.825Q127.124374 340.825 127.64 341.10626Q128.17125 341.3875 128.515 341.91876Q128.85875 342.4344 129.04625 343.1844Q129.23375 343.9344 129.23375 345.21564Q129.23375 346.73126 128.92125 347.65314Q128.62437 348.575 127.999374 349.09064Q127.39 349.59064 126.436874 349.59064Q125.2025 349.59064 124.48375 348.7Q123.64 347.6375 123.64 345.21564ZM124.718124 345.21564Q124.718124 347.325 125.218124 348.02814Q125.718124 348.73126 126.436874 348.73126Q127.17125 348.73126 127.655624 348.02814Q128.15562 347.325 128.15562 345.21564Q128.15562 343.09064 127.655624 342.40314Q127.17125 341.7 126.42125 341.7Q125.7025 341.7 125.265 342.3094Q124.718124 343.09064 124.718124 345.21564Z" fill-rule="nonzero"/><path fill="#000000" d="M179.78876 349.45L178.74188 349.45L178.74188 342.73126Q178.35126 343.09064 177.72626 343.46564Q177.11688 343.825 176.6325 343.9969L176.6325 342.98126Q177.5075 342.5594 178.16376 341.98126Q178.83563 341.3875 179.11688 340.825L179.78876 340.825L179.78876 349.45ZM182.82 347.1844L183.8825 347.04376Q184.05438 347.9344 184.49188 348.34064Q184.92938 348.73126 185.55438 348.73126Q186.30438 348.73126 186.82 348.21564Q187.33563 347.7 187.33563 346.9344Q187.33563 346.21564 186.85126 345.7469Q186.3825 345.2625 185.64813 345.2625Q185.35126 345.2625 184.89813 345.3875L185.02313 344.45Q185.1325 344.46564 185.195 344.46564Q185.86688 344.46564 186.39813 344.1219Q186.945 343.7625 186.945 343.02814Q186.945 342.45 186.55438 342.075Q186.16376 341.6844 185.53876 341.6844Q184.92938 341.6844 184.5075 342.075Q184.10126 342.46564 183.99188 343.23126L182.92938 343.04376Q183.11688 341.9969 183.80438 341.41876Q184.49188 340.825 185.5075 340.825Q186.21063 340.825 186.80438 341.1375Q187.39813 341.4344 187.71063 341.95Q188.02313 342.46564 188.02313 343.0594Q188.02313 343.60626 187.72626 344.075Q187.42938 344.52814 186.85126 344.79376Q187.60126 344.96564 188.02313 345.52814Q188.445 346.075 188.445 346.91876Q188.445 348.04376 187.61688 348.825Q186.80438 349.60626 185.55438 349.60626Q184.42938 349.60626 183.67938 348.9344Q182.92938 348.2469 182.82 347.1844ZM189.32 349.59064L191.80438 340.71564L192.64813 340.71564L190.16376 349.59064L189.32 349.59064ZM192.82 345.21564Q192.82 343.6844 193.1325 342.7625Q193.445 341.825 194.05438 341.325Q194.67938 340.825 195.61688 340.825Q196.30438 340.825 196.82 341.10626Q197.35126 341.3875 197.695 341.91876Q198.03876 342.4344 198.22626 343.1844Q198.41376 343.9344 198.41376 345.21564Q198.41376 346.73126 198.10126 347.65314Q197.80438 348.575 197.17938 349.09064Q196.57 349.59064 195.61688 349.59064Q194.3825 349.59064 193.66376 348.7Q192.82 347.6375 192.82 345.21564ZM193.89813 345.21564Q193.89813 347.325 194.39813 348.02814Q194.89813 348.73126 195.61688 348.73126Q196.35126 348.73126 196.83563 348.02814Q197.33563 347.325 197.33563 345.21564Q197.33563 343.09064 196.83563 342.40314Q196.35126 341.7 195.60126 341.7Q194.8825 341.7 194.445 342.3094Q193.89813 343.09064 193.89813 345.21564ZM203.78876 349.45L202.74188 349.45L202.74188 342.73126Q202.35126 343.09064 201.72626 343.46564Q201.11688 343.825 200.6325 343.9969L200.6325 342.98126Q201.5075 342.5594 202.16376 341.98126Q202.83563 341.3875 203.11688 340.825L203.78876 340.825L203.78876 349.45ZM206.32 349.59064L208.80438 340.71564L209.64813 340.71564L207.16376 349.59064L206.32 349.59064ZM215.36688 348.4344L215.36688 349.45L209.67938 349.45Q209.67938 349.075 209.80438 348.71564Q210.02313 348.1375 210.49188 347.575Q210.97626 347.0125 211.8825 346.27814Q213.28876 345.1219 213.77313 344.45Q214.27313 343.77814 214.27313 343.1844Q214.27313 342.5594 213.82 342.1375Q213.36688 341.7 212.64813 341.7Q211.8825 341.7 211.42938 342.15314Q210.97626 342.60626 210.96063 343.41876L209.8825 343.3094Q209.99188 342.09064 210.71063 341.46564Q211.445 340.825 212.67938 340.825Q213.91376 340.825 214.6325 341.5125Q215.35126 342.2 215.35126 343.21564Q215.35126 343.73126 215.1325 344.23126Q214.92938 344.71564 214.42938 345.27814Q213.945 345.825 212.82 346.77814Q211.86688 347.575 211.58563 347.8719Q211.32 348.15314 211.14813 348.4344L215.36688 348.4344ZM216.82 345.21564Q216.82 343.6844 217.1325 342.7625Q217.445 341.825 218.05438 341.325Q218.67938 340.825 219.61688 340.825Q220.30438 340.825 220.82 341.10626Q221.35126 341.3875 221.695 341.91876Q222.03876 342.4344 222.22626 343.1844Q222.41376 343.9344 222.41376 345.21564Q222.41376 346.73126 222.10126 347.65314Q221.80438 348.575 221.17938 349.09064Q220.57 349.59064 219.61688 349.59064Q218.3825 349.59064 217.66376 348.7Q216.82 347.6375 216.82 345.21564ZM217.89813 345.21564Q217.89813 347.325 218.39813 348.02814Q218.89813 348.73126 219.61688 348.73126Q220.35126 348.73126 220.83563 348.02814Q221.33563 347.325 221.33563 345.21564Q221.33563 343.09064 220.83563 342.40314Q220.35126 341.7 219.60126 341.7Q218.8825 341.7 218.445 342.3094Q217.89813 343.09064 217.89813 345.21564ZM229.36688 348.4344L229.36688 349.45L223.67938 349.45Q223.67938 349.075 223.80438 348.71564Q224.02313 348.1375 224.49188 347.575Q224.97626 347.0125 225.8825 346.27814Q227.28876 345.1219 227.77313 344.45Q228.27313 343.77814 228.27313 343.1844Q228.27313 342.5594 227.82 342.1375Q227.36688 341.7 226.64813 341.7Q225.8825 341.7 225.42938 342.15314Q224.97626 342.60626 224.96063 343.41876L223.8825 343.3094Q223.99188 342.09064 224.71063 341.46564Q225.445 340.825 226.67938 340.825Q227.91376 340.825 228.6325 341.5125Q229.35126 342.2 229.35126 343.21564Q229.35126 343.73126 229.1325 344.23126Q228.92938 344.71564 228.42938 345.27814Q227.945 345.825 226.82 346.77814Q225.86688 347.575 225.58563 347.8719Q225.32 348.15314 225.14813 348.4344L229.36688 348.4344ZM234.78876 349.45L233.74188 349.45L233.74188 342.73126Q233.35126 343.09064 232.72626 343.46564Q232.11688 343.825 231.6325 343.9969L231.6325 342.98126Q232.5075 342.5594 233.16376 341.98126Q233.83563 341.3875 234.11688 340.825L234.78876 340.825L234.78876 349.45Z" fill-rule="nonzero"/><path fill="#000000" d="M290.46875 349.45L289.42188 349.45L289.42188 342.73126Q289.03125 343.09064 288.40625 343.46564Q287.79688 343.825 287.3125 343.9969L287.3125 342.98126Q288.1875 342.5594 288.84375 341.98126Q289.51562 341.3875 289.79688 340.825L290.46875 340.825L290.46875 349.45ZM293.5 347.1844L294.5625 347.04376Q294.73438 347.9344 295.17188 348.34064Q295.60938 348.73126 296.23438 348.73126Q296.98438 348.73126 297.5 348.21564Q298.01562 347.7 298.01562 346.9344Q298.01562 346.21564 297.53125 345.7469Q297.0625 345.2625 296.32812 345.2625Q296.03125 345.2625 295.57812 345.3875L295.70312 344.45Q295.8125 344.46564 295.875 344.46564Q296.54688 344.46564 297.07812 344.1219Q297.625 343.7625 297.625 343.02814Q297.625 342.45 297.23438 342.075Q296.84375 341.6844 296.21875 341.6844Q295.60938 341.6844 295.1875 342.075Q294.78125 342.46564 294.67188 343.23126L293.60938 343.04376Q293.79688 341.9969 294.48438 341.41876Q295.17188 340.825 296.1875 340.825Q296.89062 340.825 297.48438 341.1375Q298.07812 341.4344 298.39062 341.95Q298.70312 342.46564 298.70312 343.0594Q298.70312 343.60626 298.40625 344.075Q298.10938 344.52814 297.53125 344.79376Q298.28125 344.96564 298.70312 345.52814Q299.125 346.075 299.125 346.91876Q299.125 348.04376 298.29688 348.825Q297.48438 349.60626 296.23438 349.60626Q295.10938 349.60626 294.35938 348.9344Q293.60938 348.2469 293.5 347.1844ZM300.0 349.59064L302.48438 340.71564L303.32812 340.71564L300.84375 349.59064L300.0 349.59064ZM309.04688 348.4344L309.04688 349.45L303.35938 349.45Q303.35938 349.075 303.48438 348.71564Q303.70312 348.1375 304.17188 347.575Q304.65625 347.0125 305.5625 346.27814Q306.96875 345.1219 307.45312 344.45Q307.95312 343.77814 307.95312 343.1844Q307.95312 342.5594 307.5 342.1375Q307.04688 341.7 306.32812 341.7Q305.5625 341.7 305.10938 342.15314Q304.65625 342.60626 304.64062 343.41876L303.5625 343.3094Q303.67188 342.09064 304.39062 341.46564Q305.125 340.825 306.35938 340.825Q307.59375 340.825 308.3125 341.5125Q309.03125 342.2 309.03125 343.21564Q309.03125 343.73126 308.8125 344.23126Q308.60938 344.71564 308.10938 345.27814Q307.625 345.825 306.5 346.77814Q305.54688 347.575 305.26562 347.8719Q305.0 348.15314 304.82812 348.4344L309.04688 348.4344ZM310.0 349.59064L312.48438 340.71564L313.32812 340.71564L310.84375 349.59064L310.0 349.59064ZM319.04688 348.4344L319.04688 349.45L313.35938 349.45Q313.35938 349.075 313.48438 348.71564Q313.70312 348.1375 314.17188 347.575Q314.65625 347.0125 315.5625 346.27814Q316.96875 345.1219 317.45312 344.45Q317.95312 343.77814 317.95312 343.1844Q317.95312 342.5594 317.5 342.1375Q317.04688 341.7 316.32812 341.7Q315.5625 341.7 315.10938 342.15314Q314.65625 342.60626 314.64062 343.41876L313.5625 343.3094Q313.67188 342.09064 314.39062 341.46564Q315.125 340.825 316.35938 340.825Q317.59375 340.825 318.3125 341.5125Q319.03125 342.2 319.03125 343.21564Q319.03125 343.73126 318.8125 344.23126Q318.60938 344.71564 318.10938 345.27814Q317.625 345.825 316.5 346.77814Q315.54688 347.575 315.26562 347.8719Q315.0 348.15314 314.82812 348.4344L319.04688 348.4344ZM320.5 345.21564Q320.5 343.6844 320.8125 342.7625Q321.125 341.825 321.73438 341.325Q322.35938 340.825 323.29688 340.825Q323.98438 340.825 324.5 341.10626Q325.03125 341.3875 325.375 341.91876Q325.71875 342.4344 325.90625 343.1844Q326.09375 343.9344 326.09375 345.21564Q326.09375 346.73126 325.78125 347.65314Q325.48438 348.575 324.85938 349.09064Q324.25 349.59064 323.29688 349.59064Q322.0625 349.59064 321.34375 348.7Q320.5 347.6375 320.5 345.21564ZM321.57812 345.21564Q321.57812 347.325 322.07812 348.02814Q322.57812 348.73126 323.29688 348.73126Q324.03125 348.73126 324.51562 348.02814Q325.01562 347.325 325.01562 345.21564Q325.01562 343.09064 324.51562 342.40314Q324.03125 341.7 323.28125 341.7Q322.5625 341.7 322.125 342.3094Q321.57812 343.09064 321.57812 345.21564ZM333.04688 348.4344L333.04688 349.45L327.35938 349.45Q327.35938 349.075 327.48438 348.71564Q327.70312 348.1375 328.17188 347.575Q328.65625 347.0125 329.5625 346.27814Q330.96875 345.1219 331.45312 344.45Q331.95312 343.77814 331.95312 343.1844Q331.95312 342.5594 331.5 342.1375Q331.04688 341.7 330.32812 341.7Q329.5625 341.7 329.10938 342.15314Q328.65625 342.60626 328.64062 343.41876L327.5625 343.3094Q327.67188 342.09064 328.39062 341.46564Q329.125 340.825 330.35938 340.825Q331.59375 340.825 332.3125 341.5125Q333.03125 342.2 333.03125 343.21564Q333.03125 343.73126 332.8125 344.23126Q332.60938 344.71564 332.10938 345.27814Q331.625 345.825 330.5 346.77814Q329.54688 347.575 329.26562 347.8719Q329.0 348.15314 328.82812 348.4344L333.04688 348.4344ZM338.46875 349.45L337.42188 349.45L337.42188 342.73126Q337.03125 343.09064 336.40625 343.46564Q335.79688 343.825 335.3125 343.9969L335.3125 342.98126Q336.1875 342.5594 336.84375 341.98126Q337.51562 341.3875 337.79688 340.825L338.46875 340.825L338.46875 349.45Z" fill-rule="nonzero"/><path fill="#000000" d="M397.64874 349.45L396.60187 349.45L396.60187 342.73126Q396.21124 343.09064 395.58624 343.46564Q394.97687 343.825 394.4925 343.9969L394.4925 342.98126Q395.3675 342.5594 396.02374 341.98126Q396.69562 341.3875 396.97687 340.825L397.64874 340.825L397.64874 349.45ZM400.68 347.1844L401.7425 347.04376Q401.91437 347.9344 402.35187 348.34064Q402.78937 348.73126 403.41437 348.73126Q404.16437 348.73126 404.68 348.21564Q405.19562 347.7 405.19562 346.9344Q405.19562 346.21564 404.71124 345.7469Q404.2425 345.2625 403.50812 345.2625Q403.21124 345.2625 402.75812 345.3875L402.88312 344.45Q402.9925 344.46564 403.055 344.46564Q403.72687 344.46564 404.25812 344.1219Q404.805 343.7625 404.805 343.02814Q404.805 342.45 404.41437 342.075Q404.02374 341.6844 403.39874 341.6844Q402.78937 341.6844 402.3675 342.075Q401.96124 342.46564 401.85187 343.23126L400.78937 343.04376Q400.97687 341.9969 401.66437 341.41876Q402.35187 340.825 403.3675 340.825Q404.07062 340.825 404.66437 341.1375Q405.25812 341.4344 405.57062 341.95Q405.88312 342.46564 405.88312 343.0594Q405.88312 343.60626 405.58624 344.075Q405.28937 344.52814 404.71124 344.79376Q405.46124 344.96564 405.88312 345.52814Q406.305 346.075 406.305 346.91876Q406.305 348.04376 405.47687 348.825Q404.66437 349.60626 403.41437 349.60626Q402.28937 349.60626 401.53937 348.9344Q400.78937 348.2469 400.68 347.1844ZM407.18 349.59064L409.66437 340.71564L410.50812 340.71564L408.02374 349.59064L407.18 349.59064ZM410.68 347.1844L411.7425 347.04376Q411.91437 347.9344 412.35187 348.34064Q412.78937 348.73126 413.41437 348.73126Q414.16437 348.73126 414.68 348.21564Q415.19562 347.7 415.19562 346.9344Q415.19562 346.21564 414.71124 345.7469Q414.2425 345.2625 413.50812 345.2625Q413.21124 345.2625 412.75812 345.3875L412.88312 344.45Q412.9925 344.46564 413.055 344.46564Q413.72687 344.46564 414.25812 344.1219Q414.805 343.7625 414.805 343.02814Q414.805 342.45 414.41437 342.075Q414.02374 341.6844 413.39874 341.6844Q412.78937 341.6844 412.3675 342.075Q411.96124 342.46564 411.85187 343.23126L410.78937 343.04376Q410.97687 341.9969 411.66437 341.41876Q412.35187 340.825 413.3675 340.825Q414.07062 340.825 414.66437 341.1375Q415.25812 341.4344 415.57062 341.95Q415.88312 342.46564 415.88312 343.0594Q415.88312 343.60626 415.58624 344.075Q415.28937 344.52814 414.71124 344.79376Q415.46124 344.96564 415.88312 345.52814Q416.305 346.075 416.305 346.91876Q416.305 348.04376 415.47687 348.825Q414.66437 349.60626 413.41437 349.60626Q412.28937 349.60626 411.53937 348.9344Q410.78937 348.2469 410.68 347.1844ZM417.18 349.59064L419.66437 340.71564L420.50812 340.71564L418.02374 349.59064L417.18 349.59064ZM426.22687 348.4344L426.22687 349.45L420.53937 349.45Q420.53937 349.075 420.66437 348.71564Q420.88312 348.1375 421.35187 347.575Q421.83624 347.0125 422.7425 346.27814Q424.14874 345.1219 424.63312 344.45Q425.13312 343.77814 425.13312 343.1844Q425.13312 342.5594 424.68 342.1375Q424.22687 341.7 423.50812 341.7Q422.7425 341.7 422.28937 342.15314Q421.83624 342.60626 421.82062 343.41876L420.7425 343.3094Q420.85187 342.09064 421.57062 341.46564Q422.305 340.825 423.53937 340.825Q424.77374 340.825 425.4925 341.5125Q426.21124 342.2 426.21124 343.21564Q426.21124 343.73126 425.9925 344.23126Q425.78937 344.71564 425.28937 345.27814Q424.805 345.825 423.68 346.77814Q422.72687 347.575 422.44562 347.8719Q422.18 348.15314 422.00812 348.4344L426.22687 348.4344ZM427.68 345.21564Q427.68 343.6844 427.9925 342.7625Q428.305 341.825 428.91437 341.325Q429.53937 340.825 430.47687 340.825Q431.16437 340.825 431.68 341.10626Q432.21124 341.3875 432.555 341.91876Q432.89874 342.4344 433.08624 343.1844Q433.27374 343.9344 433.27374 345.21564Q433.27374 346.73126 432.96124 347.65314Q432.66437 348.575 432.03937 349.09064Q431.43 349.59064 430.47687 349.59064Q429.2425 349.59064 428.52374 348.7Q427.68 347.6375 427.68 345.21564ZM428.75812 345.21564Q428.75812 347.325 429.25812 348.02814Q429.75812 348.73126 430.47687 348.73126Q431.21124 348.73126 431.69562 348.02814Q432.19562 347.325 432.19562 345.21564Q432.19562 343.09064 431.69562 342.40314Q431.21124 341.7 430.46124 341.7Q429.7425 341.7 429.305 342.3094Q428.75812 343.09064 428.75812 345.21564ZM440.22687 348.4344L440.22687 349.45L434.53937 349.45Q434.53937 349.075 434.66437 348.71564Q434.88312 348.1375 435.35187 347.575Q435.83624 347.0125 436.7425 346.27814Q438.14874 345.1219 438.63312 344.45Q439.13312 343.77814 439.13312 343.1844Q439.13312 342.5594 438.68 342.1375Q438.22687 341.7 437.50812 341.7Q436.7425 341.7 436.28937 342.15314Q435.83624 342.60626 435.82062 343.41876L434.7425 343.3094Q434.85187 342.09064 435.57062 341.46564Q436.305 340.825 437.53937 340.825Q438.77374 340.825 439.4925 341.5125Q440.21124 342.2 440.21124 343.21564Q440.21124 343.73126 439.9925 344.23126Q439.78937 344.71564 439.28937 345.27814Q438.805 345.825 437.68 346.77814Q436.72687 347.575 436.44562 347.8719Q436.18 348.15314 436.00812 348.4344L440.22687 348.4344ZM445.64874 349.45L444.60187 349.45L444.60187 342.73126Q444.21124 343.09064 443.58624 343.46564Q442.97687 343.825 442.4925 343.9969L442.4925 342.98126Q443.3675 342.5594 444.02374 341.98126Q444.69562 341.3875 444.97687 340.825L445.64874 340.825L445.64874 349.45Z" fill-rule="nonzero"/><path fill="#000000" d="M501.32874 349.45L500.28186 349.45L500.28186 342.73126Q499.89124 343.09064 499.26624 343.46564Q498.65686 343.825 498.1725 343.9969L498.1725 342.98126Q499.0475 342.5594 499.70374 341.98126Q500.3756 341.3875 500.65686 340.825L501.32874 340.825L501.32874 349.45ZM504.36 347.1844L505.4225 347.04376Q505.59436 347.9344 506.03186 348.34064Q506.46936 348.73126 507.09436 348.73126Q507.84436 348.73126 508.36 348.21564Q508.8756 347.7 508.8756 346.9344Q508.8756 346.21564 508.39124 345.7469Q507.9225 345.2625 507.1881 345.2625Q506.89124 345.2625 506.4381 345.3875L506.5631 344.45Q506.6725 344.46564 506.735 344.46564Q507.40686 344.46564 507.9381 344.1219Q508.485 343.7625 508.485 343.02814Q508.485 342.45 508.09436 342.075Q507.70374 341.6844 507.07874 341.6844Q506.46936 341.6844 506.0475 342.075Q505.64124 342.46564 505.53186 343.23126L504.46936 343.04376Q504.65686 341.9969 505.34436 341.41876Q506.03186 340.825 507.0475 340.825Q507.7506 340.825 508.34436 341.1375Q508.9381 341.4344 509.2506 341.95Q509.5631 342.46564 509.5631 343.0594Q509.5631 343.60626 509.26624 344.075Q508.96936 344.52814 508.39124 344.79376Q509.14124 344.96564 509.5631 345.52814Q509.985 346.075 509.985 346.91876Q509.985 348.04376 509.15686 348.825Q508.34436 349.60626 507.09436 349.60626Q505.96936 349.60626 505.21936 348.9344Q504.46936 348.2469 504.36 347.1844ZM510.86 349.59064L513.34436 340.71564L514.1881 340.71564L511.70374 349.59064L510.86 349.59064ZM514.36 345.21564Q514.36 343.6844 514.6725 342.7625Q514.985 341.825 515.59436 341.325Q516.21936 340.825 517.15686 340.825Q517.84436 340.825 518.36 341.10626Q518.89124 341.3875 519.235 341.91876Q519.57874 342.4344 519.76624 343.1844Q519.95374 343.9344 519.95374 345.21564Q519.95374 346.73126 519.64124 347.65314Q519.34436 348.575 518.71936 349.09064Q518.11 349.59064 517.15686 349.59064Q515.9225 349.59064 515.20374 348.7Q514.36 347.6375 514.36 345.21564ZM515.4381 345.21564Q515.4381 347.325 515.9381 348.02814Q516.4381 348.73126 517.15686 348.73126Q517.89124 348.73126 518.3756 348.02814Q518.8756 347.325 518.8756 345.21564Q518.8756 343.09064 518.3756 342.40314Q517.89124 341.7 517.14124 341.7Q516.4225 341.7 515.985 342.3094Q515.4381 343.09064 515.4381 345.21564ZM524.735 349.45L524.735 347.3875L521.01624 347.3875L521.01624 346.41876L524.9381 340.85626L525.7975 340.85626L525.7975 346.41876L526.95374 346.41876L526.95374 347.3875L525.7975 347.3875L525.7975 349.45L524.735 349.45ZM524.735 346.41876L524.735 342.5594L522.0475 346.41876L524.735 346.41876ZM527.86 349.59064L530.34436 340.71564L531.1881 340.71564L528.70374 349.59064L527.86 349.59064ZM536.90686 348.4344L536.90686 349.45L531.21936 349.45Q531.21936 349.075 531.34436 348.71564Q531.5631 348.1375 532.03186 347.575Q532.51624 347.0125 533.4225 346.27814Q534.82874 345.1219 535.3131 344.45Q535.8131 343.77814 535.8131 343.1844Q535.8131 342.5594 535.36 342.1375Q534.90686 341.7 534.1881 341.7Q533.4225 341.7 532.96936 342.15314Q532.51624 342.60626 532.5006 343.41876L531.4225 343.3094Q531.53186 342.09064 532.2506 341.46564Q532.985 340.825 534.21936 340.825Q535.45374 340.825 536.1725 341.5125Q536.89124 342.2 536.89124 343.21564Q536.89124 343.73126 536.6725 344.23126Q536.46936 344.71564 535.96936 345.27814Q535.485 345.825 534.36 346.77814Q533.40686 347.575 533.1256 347.8719Q532.86 348.15314 532.6881 348.4344L536.90686 348.4344ZM538.36 345.21564Q538.36 343.6844 538.6725 342.7625Q538.985 341.825 539.59436 341.325Q540.21936 340.825 541.15686 340.825Q541.84436 340.825 542.36 341.10626Q542.89124 341.3875 543.235 341.91876Q543.57874 342.4344 543.76624 343.1844Q543.95374 343.9344 543.95374 345.21564Q543.95374 346.73126 543.64124 347.65314Q543.34436 348.575 542.71936 349.09064Q542.11 349.59064 541.15686 349.59064Q539.9225 349.59064 539.20374 348.7Q538.36 347.6375 538.36 345.21564ZM539.4381 345.21564Q539.4381 347.325 539.9381 348.02814Q540.4381 348.73126 541.15686 348.73126Q541.89124 348.73126 542.3756 348.02814Q542.8756 347.325 542.8756 345.21564Q542.8756 343.09064 542.3756 342.40314Q541.89124 341.7 541.14124 341.7Q540.4225 341.7 539.985 342.3094Q539.4381 343.09064 539.4381 345.21564ZM550.90686 348.4344L550.90686 349.45L545.21936 349.45Q545.21936 349.075 545.34436 348.71564Q545.5631 348.1375 546.03186 347.575Q546.51624 347.0125 547.4225 346.27814Q548.82874 345.1219 549.3131 344.45Q549.8131 343.77814 549.8131 343.1844Q549.8131 342.5594 549.36 342.1375Q548.90686 341.7 548.1881 341.7Q547.4225 341.7 546.96936 342.15314Q546.51624 342.60626 546.5006 343.41876L545.4225 343.3094Q545.53186 342.09064 546.2506 341.46564Q546.985 340.825 548.21936 340.825Q549.45374 340.825 550.1725 341.5125Q550.89124 342.2 550.89124 343.21564Q550.89124 343.73126 550.6725 344.23126Q550.46936 344.71564 549.96936 345.27814Q549.485 345.825 548.36 346.77814Q547.40686 347.575 547.1256 347.8719Q546.86 348.15314 546.6881 348.4344L550.90686 348.4344ZM556.32874 349.45L555.28186 349.45L555.28186 342.73126Q554.89124 343.09064 554.26624 343.46564Q553.65686 343.825 553.1725 343.9969L553.1725 342.98126Q554.0475 342.5594 554.70374 341.98126Q555.3756 341.3875 555.65686 340.825L556.32874 340.825L556.32874 349.45Z" fill-rule="nonzero"/><path fill="#4285f4" d="M246.0 25.55C246.0 28.863708 243.3137 31.55 240.0 31.55C236.6863 31.55 234.0 28.863708 234.0 25.55C234.0 22.236292 236.6863 19.55 240.0 19.55C243.3137 19.55 246.0 22.236292 246.0 25.55Z" fill-rule="nonzero"/><path fill="#1a1a1a" d="M254.92188 29.55L254.92188 20.95625L258.17188 20.95625Q259.01562 20.95625 259.46875 21.034374Q260.10938 21.14375 260.53125 21.440624Q260.96875 21.7375 261.21875 22.26875Q261.48438 22.8 261.48438 23.440624Q261.48438 24.534374 260.78125 25.3Q260.09375 26.05 258.26562 26.05L256.0625 26.05L256.0625 29.55L254.92188 29.55ZM256.0625 25.05L258.28125 25.05Q259.39062 25.05 259.84375 24.64375Q260.3125 24.221874 260.3125 23.471874Q260.3125 22.940624 260.03125 22.565624Q259.76562 22.175 259.32812 22.05Q259.03125 21.971874 258.26562 21.971874L256.0625 21.971874L256.0625 25.05ZM267.04688 27.55L268.14062 27.675Q267.89062 28.628124 267.1875 29.159374Q266.48438 29.690624 265.40625 29.690624Q264.04688 29.690624 263.23438 28.846874Q262.4375 28.003124 262.4375 26.4875Q262.4375 24.925 263.25 24.065624Q264.0625 23.190624 265.34375 23.190624Q266.59375 23.190624 267.375 24.034374Q268.17188 24.878124 268.17188 26.425Q268.17188 26.51875 268.17188 26.70625L263.53125 26.70625Q263.59375 27.7375 264.10938 28.284374Q264.625 28.815624 265.40625 28.815624Q265.98438 28.815624 266.39062 28.51875Q266.8125 28.20625 267.04688 27.55ZM263.59375 25.846874L267.0625 25.846874Q267.0 25.05 266.67188 24.659374Q266.15625 24.05 265.35938 24.05Q264.625 24.05 264.125 24.534374Q263.64062 25.01875 263.59375 25.846874ZM269.375 27.690624L270.40625 27.534374Q270.5 28.159374 270.89062 28.4875Q271.29688 28.815624 272.03125 28.815624Q272.75 28.815624 273.09375 28.534374Q273.45312 28.2375 273.45312 27.83125Q273.45312 27.471874 273.14062 27.26875Q272.92188 27.128124 272.0625 26.909374Q270.90625 26.6125 270.45312 26.409374Q270.01562 26.190624 269.78125 25.815624Q269.54688 25.440624 269.54688 24.971874Q269.54688 24.565624 269.73438 24.20625Q269.92188 23.846874 270.25 23.6125Q270.5 23.440624 270.92188 23.315624Q271.34375 23.190624 271.84375 23.190624Q272.5625 23.190624 273.10938 23.409374Q273.67188 23.6125 273.9375 23.971874Q274.20312 24.33125 274.29688 24.925L273.26562 25.065624Q273.20312 24.596874 272.85938 24.33125Q272.53125 24.05 271.90625 24.05Q271.1875 24.05 270.875 24.3Q270.5625 24.534374 270.5625 24.8625Q270.5625 25.065624 270.6875 25.221874Q270.82812 25.39375 271.09375 25.503124Q271.25 25.565624 272.03125 25.76875Q273.15625 26.08125 273.59375 26.26875Q274.03125 26.45625 274.28125 26.815624Q274.53125 27.175 274.53125 27.721874Q274.53125 28.253124 274.21875 28.721874Q273.92188 29.175 273.34375 29.440624Q272.76562 29.690624 272.03125 29.690624Q270.8125 29.690624 270.17188 29.190624Q269.54688 28.675 269.375 27.690624ZM275.40625 26.440624Q275.40625 24.70625 276.35938 23.878124Q277.15625 23.190624 278.3125 23.190624Q279.59375 23.190624 280.40625 24.034374Q281.23438 24.8625 281.23438 26.346874Q281.23438 27.55 280.875 28.2375Q280.51562 28.925 279.8125 29.315624Q279.125 29.690624 278.3125 29.690624Q277.01562 29.690624 276.20312 28.8625Q275.40625 28.01875 275.40625 26.440624ZM276.48438 26.440624Q276.48438 27.628124 277.0 28.221874Q277.53125 28.815624 278.3125 28.815624Q279.10938 28.815624 279.625 28.221874Q280.14062 27.628124 280.14062 26.409374Q280.14062 25.253124 279.60938 24.659374Q279.09375 24.065624 278.3125 24.065624Q277.53125 24.065624 277.0 24.659374Q276.48438 25.2375 276.48438 26.440624Z" fill-rule="nonzero"/><path fill="#ea4335" d="M310.0 25.55C310.0 28.863708 307.31372 31.55 304.0 31.55C300.68628 31.55 298.0 28.863708 298.0 25.55C298.0 22.236292 300.68628 19.55 304.0 19.55C307.31372 19.55 310.0 22.236292 310.0 25.55Z" fill-rule="nonzero"/><path fill="#1a1a1a" d="M318.875 29.55L318.875 20.95625L322.10938 20.95625Q323.09375 20.95625 323.6875 21.221874Q324.28125 21.4875 324.60938 22.034374Q324.95312 22.565624 324.95312 23.159374Q324.95312 23.70625 324.65625 24.190624Q324.35938 24.675 323.75 24.971874Q324.53125 25.20625 324.9375 25.76875Q325.35938 26.315624 325.35938 27.065624Q325.35938 27.659374 325.10938 28.190624Q324.85938 28.70625 324.48438 28.9875Q324.10938 29.26875 323.53125 29.409374Q322.96875 29.55 322.15625 29.55L318.875 29.55ZM320.01562 24.565624L321.875 24.565624Q322.625 24.565624 322.95312 24.471874Q323.39062 24.346874 323.60938 24.05Q323.82812 23.7375 323.82812 23.284374Q323.82812 22.8625 323.625 22.534374Q323.42188 22.20625 323.03125 22.096874Q322.65625 21.971874 321.73438 21.971874L320.01562 21.971874L320.01562 24.565624ZM320.01562 28.534374L322.15625 28.534374Q322.70312 28.534374 322.92188 28.4875Q323.32812 28.425 323.57812 28.26875Q323.84375 28.096874 324.01562 27.784374Q324.1875 27.471874 324.1875 27.065624Q324.1875 26.58125 323.9375 26.221874Q323.70312 25.8625 323.26562 25.721874Q322.82812 25.58125 322.0 25.58125L320.01562 25.58125L320.01562 28.534374ZM326.40625 26.440624Q326.40625 24.70625 327.35938 23.878124Q328.15625 23.190624 329.3125 23.190624Q330.59375 23.190624 331.40625 24.034374Q332.23438 24.8625 332.23438 26.346874Q332.23438 27.55 331.875 28.2375Q331.51562 28.925 330.8125 29.315624Q330.125 29.690624 329.3125 29.690624Q328.01562 29.690624 327.20312 28.8625Q326.40625 28.01875 326.40625 26.440624ZM327.48438 26.440624Q327.48438 27.628124 328.0 28.221874Q328.53125 28.815624 329.3125 28.815624Q330.10938 28.815624 330.625 28.221874Q331.14062 27.628124 331.14062 26.409374Q331.14062 25.253124 330.60938 24.659374Q330.09375 24.065624 329.3125 24.065624Q328.53125 24.065624 328.0 24.659374Q327.48438 25.2375 327.48438 26.440624ZM337.82812 29.55L337.82812 28.76875Q337.23438 29.690624 336.09375 29.690624Q335.34375 29.690624 334.71875 29.284374Q334.09375 28.8625 333.75 28.128124Q333.40625 27.39375 333.40625 26.440624Q333.40625 25.51875 333.71875 24.753124Q334.03125 23.9875 334.65625 23.596874Q335.28125 23.190624 336.04688 23.190624Q336.60938 23.190624 337.04688 23.425Q337.48438 23.659374 337.76562 24.034374L337.76562 20.95625L338.8125 20.95625L338.8125 29.55L337.82812 29.55ZM334.5 26.440624Q334.5 27.64375 335.0 28.2375Q335.5 28.815624 336.1875 28.815624Q336.875 28.815624 337.35938 28.253124Q337.84375 27.690624 337.84375 26.534374Q337.84375 25.253124 337.34375 24.659374Q336.85938 24.065624 336.14062 24.065624Q335.4375 24.065624 334.96875 24.64375Q334.5 25.20625 334.5 26.440624ZM340.75 31.940624L340.625 30.95625Q340.96875 31.05 341.23438 31.05Q341.57812 31.05 341.78125 30.925Q342.0 30.815624 342.14062 30.6125Q342.23438 30.440624 342.46875 29.815624Q342.48438 29.7375 342.5625 29.565624L340.1875 23.33125L341.32812 23.33125L342.625 26.925Q342.875 27.6125 343.07812 28.378124Q343.26562 27.64375 343.51562 26.95625L344.84375 23.33125L345.89062 23.33125L343.53125 29.659374Q343.14062 30.675 342.9375 31.065624Q342.65625 31.596874 342.28125 31.83125Q341.92188 32.08125 341.42188 32.08125Q341.125 32.08125 340.75 31.940624ZM349.98438 29.55L349.98438 20.95625L355.78125 20.95625L355.78125 21.971874L351.125 21.971874L351.125 24.628124L355.15625 24.628124L355.15625 25.64375L351.125 25.64375L351.125 29.55L349.98438 29.55ZM360.85938 28.784374Q360.26562 29.284374 359.71875 29.4875Q359.1875 29.690624 358.5625 29.690624Q357.53125 29.690624 356.98438 29.190624Q356.4375 28.690624 356.4375 27.909374Q356.4375 27.45625 356.64062 27.08125Q356.84375 26.690624 357.1875 26.471874Q357.53125 26.2375 357.95312 26.128124Q358.25 26.034374 358.89062 25.95625Q360.15625 25.815624 360.76562 25.596874Q360.76562 25.378124 360.76562 25.33125Q360.76562 24.675 360.46875 24.409374Q360.0625 24.065624 359.26562 24.065624Q358.53125 24.065624 358.17188 24.33125Q357.8125 24.58125 357.64062 25.2375L356.60938 25.096874Q356.75 24.440624 357.07812 24.034374Q357.40625 23.628124 358.01562 23.409374Q358.625 23.190624 359.42188 23.190624Q360.21875 23.190624 360.71875 23.378124Q361.21875 23.565624 361.45312 23.846874Q361.6875 24.128124 361.78125 24.565624Q361.82812 24.83125 361.82812 25.534374L361.82812 26.940624Q361.82812 28.409374 361.89062 28.8Q361.96875 29.190624 362.17188 29.55L361.0625 29.55Q360.90625 29.221874 360.85938 28.784374ZM360.76562 26.425Q360.1875 26.659374 359.04688 26.83125Q358.39062 26.925 358.125 27.05Q357.85938 27.159374 357.70312 27.378124Q357.5625 27.596874 357.5625 27.878124Q357.5625 28.3 357.875 28.58125Q358.20312 28.8625 358.8125 28.8625Q359.42188 28.8625 359.89062 28.596874Q360.375 28.33125 360.59375 27.8625Q360.76562 27.503124 360.76562 26.815624L360.76562 26.425ZM366.09375 28.6125L366.25 29.534374Q365.79688 29.628124 365.45312 29.628124Q364.875 29.628124 364.5625 29.45625Q364.25 29.26875 364.10938 28.971874Q363.98438 28.675 363.98438 27.721874L363.98438 24.14375L363.21875 24.14375L363.21875 23.33125L363.98438 23.33125L363.98438 21.784374L365.03125 21.159374L365.03125 23.33125L366.09375 23.33125L366.09375 24.14375L365.03125 24.14375L365.03125 27.784374Q365.03125 28.2375 365.07812 28.3625Q365.14062 28.4875 365.26562 28.565624Q365.39062 28.64375 365.625 28.64375Q365.8125 28.64375 366.09375 28.6125Z" fill-rule="nonzero"/></svg>