<?xml version="1.0" encoding="UTF-8"?>
<!DOCTYPE svg PUBLIC "-//W3C//DTD SVG 1.1//EN" "http://www.w3.org/Graphics/SVG/1.1/DTD/svg11.dtd">
<!-- Creator: CorelDRAW X7 -->
<svg xmlns="http://www.w3.org/2000/svg" xml:space="preserve" width="26.4229mm" height="39.8724mm" version="1.1" style="shape-rendering:geometricPrecision; text-rendering:geometricPrecision; image-rendering:optimizeQuality; fill-rule:evenodd; clip-rule:evenodd"
viewBox="0 0 5104 7702"
 xmlns:xlink="http://www.w3.org/1999/xlink">
 <defs>
  <style type="text/css">
   <![CDATA[
    .fil0 {fill:#FEFEFE}
    .fil1 {fill:#FEFEFE;fill-rule:nonzero}
   ]]>
  </style>
 </defs>
 <g id="Layer_x0020_1">
  <metadata id="CorelCorpID_0Corel-Layer"/>
  <path class="fil0" d="M18 7149l0 90c0,71 12,130 35,178 24,48 56,86 97,113 40,28 86,47 138,58 52,11 108,17 170,17 148,0 261,-36 339,-107 78,-72 117,-185 117,-339 0,-67 -10,-124 -29,-170 -19,-47 -45,-85 -78,-116 -32,-31 -66,-55 -101,-73 -35,-18 -79,-37 -134,-60 -80,-33 -139,-64 -176,-93 -38,-30 -56,-72 -56,-129 0,-101 41,-151 125,-151 45,0 77,16 95,49 18,29 27,78 27,147l303 0 0 -33c0,-56 -8,-107 -24,-153 -15,-46 -40,-86 -74,-121 -33,-35 -78,-62 -132,-81 -55,-19 -121,-28 -197,-28 -78,0 -146,10 -202,31 -56,21 -102,51 -136,89 -35,38 -61,81 -76,130 -16,49 -24,103 -24,162 0,71 10,131 30,180 20,49 46,90 79,121 32,32 66,56 101,75 35,18 80,38 136,61 79,31 137,61 174,90 36,29 55,73 55,132 0,47 -11,87 -33,119 -22,32 -58,48 -109,48 -52,0 -87,-17 -107,-49 -20,-33 -30,-79 -30,-138l0 -49 -303 0zm1016 428l314 0 0 -599 251 0 0 599 314 0 0 -1403 -314 0 0 525 -251 0 0 -525 -314 0 0 1403zm1594 -522l-228 0 110 -625 4 0 114 625zm-645 522l325 0 47 -267 320 0 49 267 325 0 -333 -1403 -393 0 -340 1403zm1136 0l314 0 0 -548 139 0c149,0 258,-38 326,-114 68,-76 102,-181 102,-314 0,-50 -6,-99 -17,-148 -11,-48 -31,-94 -60,-136 -28,-43 -69,-77 -121,-103 -53,-27 -118,-40 -197,-40l-486 0 0 1403zm314 -1159l81 0c59,0 101,17 125,50 24,33 35,80 35,141 0,53 -11,96 -34,128 -23,32 -63,48 -121,48l-86 0 0 -367zm694 1159l794 0 0 -267 -479 0 0 -320 430 0 0 -267 -430 0 0 -281 458 0 0 -268 -773 0 0 1403zm-4127 -1663l401 0c76,0 140,-10 190,-31 51,-20 90,-47 117,-80 28,-34 47,-69 58,-107 10,-38 16,-77 16,-118 0,-58 -7,-106 -20,-145 -14,-39 -31,-69 -52,-90 -21,-21 -43,-36 -66,-45 -23,-9 -48,-16 -75,-20l0 -4c55,-11 98,-42 131,-91 33,-50 50,-111 50,-182 0,-98 -30,-173 -89,-223 -58,-50 -138,-76 -239,-76l-422 0 0 1212zm271 -1001l76 0c46,0 79,13 100,38 21,25 31,56 31,92 0,46 -11,81 -32,106 -22,25 -55,37 -100,37l-75 0 0 -273zm0 463l88 0c44,0 78,14 104,42 25,27 38,70 38,128 0,46 -12,84 -35,113 -23,30 -61,45 -112,45l-83 0 0 -328zm656 538l685 0 0 -231 -413 0 0 -276 371 0 0 -231 -371 0 0 -243 395 0 0 -231 -667 0 0 1212zm976 0l271 0 0 -981 243 0 0 -231 -756 0 0 231 242 0 0 981zm775 0l272 0 0 -981 242 0 0 -231 -756 0 0 231 242 0 0 981zm608 0l685 0 0 -231 -414 0 0 -276 372 0 0 -231 -372 0 0 -243 396 0 0 -231 -667 0 0 1212zm1079 -1011l82 0c52,0 88,13 109,39 21,26 32,64 32,113 0,43 -11,80 -33,111 -21,32 -57,47 -106,47l-84 0 0 -310zm-272 1011l272 0 0 -501 103 0c44,0 74,17 90,50 15,34 23,102 23,205 0,69 2,122 7,159 4,38 12,67 22,87l293 0 0 -15c-11,-5 -19,-11 -25,-19 -6,-8 -11,-21 -14,-38 -3,-18 -6,-43 -8,-76 -2,-33 -4,-82 -5,-147 -1,-49 -4,-89 -7,-121 -4,-31 -12,-60 -24,-85 -12,-25 -30,-45 -55,-62 -24,-17 -58,-29 -100,-34l0 -4c65,-17 113,-49 146,-96 32,-47 48,-113 48,-199 0,-43 -6,-83 -17,-121 -11,-38 -29,-72 -53,-100 -24,-29 -57,-52 -96,-69 -40,-17 -88,-26 -144,-26l-456 0 0 1212zm-3656 -1435l388 0 0 -683 419 -1052 -417 0 -189 644 -5 0 -185 -644 -430 0 419 1052 0 683zm1155 -868c0,-129 3,-233 7,-310 5,-76 13,-138 25,-185 11,-47 28,-81 52,-102 23,-22 54,-32 92,-32 40,0 72,10 95,32 23,21 41,55 53,103 13,48 21,110 26,186 4,76 7,179 7,308 0,130 -3,233 -7,309 -5,76 -13,138 -26,186 -12,47 -30,82 -53,103 -23,21 -55,32 -95,32 -38,0 -69,-11 -92,-32 -24,-21 -41,-55 -52,-102 -12,-47 -20,-109 -25,-186 -4,-77 -7,-180 -7,-310zm759 0c0,-146 -5,-268 -16,-368 -11,-99 -35,-190 -72,-272 -37,-82 -95,-146 -174,-192 -80,-46 -186,-69 -319,-69 -124,0 -225,20 -303,61 -77,40 -135,99 -175,177 -40,78 -67,169 -81,274 -14,106 -21,235 -21,389 0,154 7,284 21,390 14,106 41,198 81,275 40,77 98,135 175,176 78,40 179,61 303,61 133,0 239,-23 319,-70 79,-46 137,-110 174,-192 37,-81 61,-172 72,-272 11,-99 16,-222 16,-368zm1211 -867l-388 0 0 1280c0,144 -52,217 -155,217 -104,0 -155,-73 -155,-217l0 -1280 -389 0 0 1161c0,93 8,175 23,247 16,72 43,135 82,189 40,55 95,97 167,127 72,30 162,45 272,45 109,0 200,-15 272,-45 71,-30 127,-72 166,-127 39,-54 67,-117 82,-189 16,-72 23,-154 23,-247l0 -1161zm550 287l118 0c74,0 126,18 156,55 30,38 45,92 45,163 0,62 -15,115 -46,159 -31,45 -82,67 -153,67l-120 0 0 -444zm-389 1448l389 0 0 -717 148 0c63,0 106,24 129,72 22,47 33,145 33,292 0,99 3,175 9,229 6,53 17,94 33,124l418 0 0 -22c-15,-7 -27,-16 -35,-27 -9,-11 -16,-30 -20,-55 -5,-25 -9,-61 -12,-108 -3,-47 -5,-117 -7,-211 -1,-70 -5,-127 -10,-173 -5,-45 -17,-85 -34,-121 -17,-36 -43,-66 -78,-90 -36,-24 -84,-41 -144,-49l0 -4c93,-25 162,-71 209,-138 46,-67 69,-162 69,-285 0,-62 -8,-120 -24,-174 -17,-54 -42,-102 -77,-143 -34,-42 -80,-74 -137,-99 -57,-24 -126,-36 -206,-36l-653 0 0 1735zm-2133 -3690c0,-94 -6,-182 -19,-265 -13,-83 -44,-165 -91,-246 -48,-81 -123,-147 -224,-199 -102,-53 -236,-79 -400,-79 -187,0 -336,30 -449,90 -112,61 -195,147 -248,258 -53,112 -88,243 -104,393 -17,150 -25,342 -25,577 0,207 9,383 26,529 18,146 50,270 98,372 47,102 116,180 206,234 90,53 207,80 350,80 119,0 222,-21 310,-63 88,-42 151,-114 190,-217l7 0 13 232 373 0 0 -1307 -763 0 0 382 256 0 0 79c0,173 -19,301 -57,385 -38,85 -102,127 -193,127 -54,0 -97,-15 -130,-45 -32,-29 -57,-78 -75,-145 -17,-67 -29,-154 -35,-261 -7,-107 -10,-250 -10,-430 0,-178 2,-320 8,-427 5,-107 17,-193 34,-259 33,-135 102,-202 208,-202 48,0 86,13 115,40 30,26 52,59 67,100 15,41 25,83 29,127 5,43 7,90 7,140l526 0zm202 1696l1378 0 0 -464 -832 0 0 -556 747 0 0 -465 -747 0 0 -488 796 0 0 -464 -1342 0 0 2437zm2060 0l546 0 0 -1973 488 0 0 -464 -1521 0 0 464 487 0 0 1973z"/>
  <path class="fil1" d="M323 7610l7 5c20,13 41,25 64,34 22,10 47,17 72,23 26,5 53,9 80,12 28,3 57,4 88,4 73,0 138,-8 194,-26l0 0c56,-18 103,-44 141,-79 19,-17 36,-37 50,-60l0 24c-12,17 -26,32 -41,46 -40,36 -88,64 -146,82l0 0c-57,18 -123,27 -198,27 -31,0 -60,-2 -89,-4 -28,-3 -56,-7 -82,-13 -26,-6 -51,-13 -74,-23 -24,-10 -46,-22 -67,-36 -9,-6 -18,-13 -27,-21 9,2 19,4 28,5zm696 -595c-12,-18 -25,-33 -40,-47 -16,-15 -32,-29 -49,-41 -16,-12 -33,-22 -50,-31 -16,-8 -33,-16 -53,-25 -3,-3 -6,-6 -9,-9 -7,-6 -14,-12 -21,-18 10,4 20,8 29,12l0 0c22,10 42,19 60,28 18,9 35,20 52,32 17,13 34,27 50,42 11,10 22,22 31,34l0 23zm-482 -306c-5,-7 -9,-15 -13,-24 -10,-22 -15,-48 -15,-77 0,-52 11,-91 33,-117 7,-8 14,-15 22,-20 1,5 2,10 3,15 -5,4 -10,8 -14,13 -20,24 -30,61 -30,109 0,28 4,52 13,72 7,15 16,29 28,41 -9,-4 -18,-8 -27,-12zm228 -131c3,20 5,43 5,69l249 0 0 13 -256 0 -7 0 0 -6c0,-29 -1,-54 -4,-76l13 0zm254 -150c-4,-8 -8,-15 -12,-22 -12,-20 -27,-38 -43,-55 -16,-17 -36,-32 -57,-45 -22,-14 -46,-25 -73,-34l-10 -4c-6,-6 -11,-12 -17,-18 11,2 21,6 31,9 28,10 53,21 76,35 23,14 43,30 60,47 17,18 32,37 44,58l1 1 0 28zm-521 938c-5,-23 -7,-49 -7,-78l0 -42 -152 0c-1,-5 -1,-9 -2,-14l160 0 7 0 0 7 0 49c0,28 2,52 7,74 -5,1 -9,2 -13,4zm1 -293c-10,-4 -20,-9 -30,-13 -23,-10 -43,-20 -61,-29 -8,-4 -16,-9 -24,-14 38,15 79,34 115,56zm718 588l301 0 0 -593 0 -7 7 0 59 0 0 14 -52 0 0 593 0 6 -7 0 -315 0 -6 0 0 -6 0 -76 13 0 0 69zm565 -69l0 69 301 0 0 -69 14 0 0 76 0 6 -7 0 -315 0 -6 0 0 -6 0 -76 13 0zm301 -491l0 -830 -155 0 0 -13 162 0 7 0 0 6 0 781 -14 56zm-565 -417l0 -413 -155 0 0 -13 162 0 7 0 0 6 0 420 -14 0zm1070 356l11 -62 7 38 -4 24 -14 0zm-420 621l311 0 46 -262 1 -5 6 0 143 0 2 13 -140 0 -46 262 -1 5 -5 0 -326 0 -8 0 2 -8 18 -74 13 0 -16 69zm725 -69l13 69 311 0 -16 -69 14 0 17 74 2 8 -8 0 -326 0 -5 0 -1 -5 -14 -77 13 0zm211 -409l-217 -912 -132 0 -3 -13 141 0 5 0 1 5 205 861 0 59zm198 478l301 0 0 -542 0 -7 7 0 138 0c148,0 255,-37 321,-111 17,-18 31,-38 43,-60l0 26c-10,15 -21,29 -33,43 -69,77 -179,116 -331,116l-132 0 0 542 0 6 -6 0 -315 0 -7 0 0 -6 0 -76 14 0 0 69zm810 -1221c-5,-10 -11,-20 -18,-29 -14,-21 -31,-40 -51,-57 -19,-17 -42,-31 -68,-44 -16,-8 -34,-15 -53,-21 -6,-6 -11,-12 -16,-18 27,6 52,15 75,27 27,13 51,28 71,46 21,18 39,37 53,59 3,4 5,7 7,11l0 26zm-502 61l30 0c2,5 4,9 6,14l-30 0 0 226c-4,4 -8,8 -13,10l0 -243 0 -7 7 0zm701 1160l779 0 0 -254 -154 0 0 -13 161 0 7 0 0 6 0 268 0 6 -7 0 -793 0 -7 0 0 -6 0 -76 14 0 0 69zm300 -366l0 -215 0 -7 7 0 424 0 0 -254 -155 0 0 -13 162 0 6 0 0 7 0 267 0 7 -6 0 -424 0 0 208 -14 0zm0 -587l0 -176 0 -7 7 0 452 0 0 -254 -155 0 0 -13 162 0 6 0 0 6 0 268 0 6 -6 0 -452 0 0 170 -14 0zm-4428 -711l394 0c38,0 73,-2 104,-7 31,-5 59,-13 84,-23 25,-10 47,-21 66,-34 19,-14 35,-28 49,-44 12,-16 23,-32 32,-48l0 26c-7,10 -14,20 -22,30 -14,17 -31,33 -51,47 -20,13 -43,25 -69,36 -26,10 -55,18 -87,23 -32,5 -68,8 -106,8l-401 0 -6 0 0 -7 0 -75 13 0 0 68zm729 -517l-3 -5 0 0c-8,-15 -17,-27 -27,-37 -11,-10 -21,-19 -32,-26 -10,-7 -21,-13 -32,-18 -12,-4 -23,-8 -36,-11 -9,-3 -19,-5 -29,-7 -3,-6 -7,-12 -11,-18l2 0c26,-6 50,-16 71,-31 21,-14 40,-34 56,-58l0 0c16,-24 28,-51 36,-81 2,-7 4,-14 5,-22l0 51c-8,21 -18,41 -30,59l0 0c-17,26 -36,47 -59,63 -17,11 -35,20 -55,26 6,2 12,3 18,5 12,3 25,7 37,12 12,5 23,11 35,19 11,7 22,17 33,27 8,8 15,16 21,26l0 26zm0 -466c-3,-17 -8,-34 -14,-50 -15,-36 -36,-66 -65,-91 -28,-24 -62,-43 -101,-55 -6,-2 -13,-4 -19,-5 -4,-6 -8,-12 -13,-17 12,2 24,5 36,9 41,13 76,32 106,58 30,26 53,58 68,96l2 5 0 50zm-464 -18l7 0c2,5 3,9 4,14l-4 0 0 93c-4,10 -8,19 -14,27l0 -127 0 -7 7 0zm0 463l23 0c2,5 4,9 5,14l-21 0 0 177 -1 0c-4,5 -8,10 -13,14l0 -198 0 -7 7 0zm662 538l672 0 0 -217 -155 0 0 -13 162 0 6 0 0 6 0 231 0 7 -6 0 -685 0 -7 0 0 -7 0 -75 13 0 0 68zm258 -329l0 -171 0 -7 7 0 365 0 0 -217 -155 0 0 -14 162 0 6 0 0 7 0 231 0 6 -6 0 -365 0 0 165 -14 0zm0 -507l0 -138 0 -6 7 0 389 0 0 -69 14 0 0 75 0 7 -7 0 -389 0 0 131 -14 0zm278 -362l-37 0 0 -13 37 0 0 13zm440 1198l258 0 0 -974 0 -6 7 0 235 0 0 -69 14 0 0 75 0 7 -7 0 -236 0 0 974 0 7 -6 0 -272 0 -6 0 0 -7 0 -75 13 0 0 68zm-242 -1049l0 69 44 0 0 13 -51 0 -7 0 0 -7 0 -75 14 0zm1017 1049l258 0 0 -974 0 -6 7 0 145 0 0 13 -138 0 0 974 0 7 -7 0 -271 0 -7 0 0 -7 0 -75 13 0 0 68zm410 -1198l-64 0 0 -13 64 0 0 13zm-652 149l0 69 44 0 0 13 -51 0 -6 0 0 -7 0 -75 13 0zm850 1049l671 0 0 -68 14 0 0 75 0 7 -7 0 -685 0 -7 0 0 -7 0 -75 14 0 0 68zm609 -217l-92 0 0 -13 92 0 0 13zm-351 -112l0 -171 0 -7 6 0 345 0 0 13 -338 0 0 165 -13 0zm351 -395l-134 0 0 -14 134 0 0 14zm-351 -112l0 -138 0 -6 6 0 345 0 0 13 -338 0 0 131 -13 0zm351 -362l-110 0 0 -13 110 0 0 13zm463 187l22 0c1,4 3,9 4,14l-19 0 0 150c-2,3 -3,5 -5,8 -3,4 -6,7 -9,10l0 -175 0 -7 7 0zm-264 1011l257 0 0 -493 0 -7 7 0 12 0c1,4 2,9 3,13l-8 0 0 494 0 7 -7 0 -271 0 -7 0 0 -7 0 -75 14 0 0 68zm495 -68c2,13 5,26 8,36 3,13 6,23 11,32l281 0 0 -4c-4,-2 -8,-4 -11,-7 -5,-3 -9,-7 -12,-12 -4,-4 -7,-10 -9,-17 -3,-7 -5,-15 -6,-24 -2,-9 -3,-20 -5,-32 -1,-13 -2,-28 -4,-44 -1,-16 -2,-37 -2,-62 -1,-24 -2,-53 -2,-86 -1,-24 -2,-46 -3,-66 -1,-20 -3,-38 -5,-54 -1,-15 -4,-30 -8,-44 -4,-13 -9,-26 -14,-39l0 0c-6,-11 -13,-22 -22,-32 -9,-10 -19,-20 -31,-28 -12,-8 -26,-15 -42,-20 -16,-6 -35,-10 -55,-13l-4 0 -2 -4 0 -2 0 -4 0 -5 5 -1c31,-8 59,-20 83,-36 23,-15 43,-35 58,-57 16,-23 28,-51 36,-83 8,-33 12,-70 12,-113 0,-42 -6,-82 -17,-119 -6,-19 -13,-36 -21,-52 -9,-17 -19,-32 -31,-46l0 0c-12,-14 -25,-26 -41,-38 -16,-11 -33,-20 -53,-29 -15,-6 -31,-12 -49,-15 -4,-6 -8,-11 -12,-17 24,5 46,11 67,20 20,8 38,19 55,30 16,12 31,26 43,40l0 0c13,15 24,31 33,48 9,17 16,36 22,55 11,38 17,80 17,123 0,44 -4,82 -12,116 -8,34 -21,63 -37,87 -17,25 -38,45 -63,61 -19,13 -41,24 -66,32 13,2 25,5 36,9 18,6 33,13 46,22 12,9 24,19 33,30 10,11 18,23 24,36l0 0c6,12 11,26 15,41l0 0c4,14 7,29 9,46 2,15 3,34 5,54 1,20 2,42 2,67l0 0c1,32 1,61 2,86 1,24 2,44 3,61 1,16 2,31 4,43 1,13 2,23 4,32 1,8 3,15 5,21 3,6 5,11 7,14l0 0c3,4 6,7 10,9 3,3 8,5 13,8l4 1 0 5 0 15 0 7 -7 0 -292 0 -4 0 -2 -4c-6,-10 -11,-23 -15,-38 -3,-12 -5,-25 -7,-40l13 0zm-4152 -1367l375 0 0 -676 0 -1 0 -1 184 -461c-1,13 -2,27 -2,40l-169 424 0 682 0 7 -6 0 -389 0 -7 0 0 -7 0 -75 14 0 0 68zm729 -1721l-128 0 6 -14 136 0c-5,5 -9,9 -14,14zm-649 281l-81 -281 -127 0 -4 -14 137 0 5 0 1 5 76 266 -7 24zm1062 579c0,-64 1,-122 2,-174 1,-52 3,-97 5,-136 2,-38 5,-73 10,-104 4,-32 9,-59 14,-83 6,-24 14,-45 23,-62 9,-18 19,-32 31,-43 12,-11 25,-18 39,-24 2,4 4,8 5,13 -13,4 -24,12 -34,21 -11,10 -21,23 -29,39 -9,17 -16,36 -21,59 -6,24 -11,51 -15,81 -4,31 -7,66 -10,104 -2,39 -4,84 -5,135 -1,51 -1,109 -1,174 0,66 0,124 1,175 1,51 3,96 5,135 3,38 6,73 10,103 4,31 9,58 15,81 2,9 4,17 6,25 -4,1 -8,2 -13,3 -2,-8 -5,-16 -7,-24 -5,-24 -10,-52 -14,-83 -5,-31 -8,-66 -10,-104 -2,-39 -4,-84 -5,-136 -1,-52 -2,-110 -2,-175zm698 -570c-8,-23 -17,-45 -27,-67 -18,-40 -41,-76 -70,-108 -28,-31 -62,-58 -101,-81 -20,-12 -42,-22 -66,-30 -7,-8 -14,-15 -22,-22 35,10 66,24 94,40 41,24 76,52 105,84 30,33 54,70 73,111 5,12 10,23 14,34l0 39zm-850 1384c12,7 24,14 37,21 38,20 82,35 132,45 50,10 106,15 168,15 66,0 125,-6 177,-17 53,-12 98,-29 138,-51 39,-23 73,-50 101,-82 29,-31 52,-67 70,-107 19,-41 34,-84 46,-128 3,-13 6,-25 9,-38 2,9 5,18 7,28l-3 13c-12,46 -28,89 -46,130 -19,42 -43,79 -73,111 -29,33 -64,61 -105,84 -40,24 -87,41 -141,53 -53,12 -113,18 -180,18 -63,0 -120,-6 -171,-16 -51,-10 -96,-25 -135,-46 -23,-12 -44,-25 -63,-40 10,2 21,5 32,7zm2098 -1674l-131 0 0 -14 131 0 0 14zm-661 1382c-9,-30 -14,-66 -14,-109l0 -1273 -154 0 0 -14 161 0 7 0 0 7 0 1280c0,42 4,77 13,106 -4,2 -9,3 -13,3zm-192 291c21,14 45,27 71,38 35,14 75,26 120,33 45,7 95,11 149,11 55,0 104,-4 149,-11 45,-7 85,-19 120,-33 36,-15 67,-33 94,-54 27,-20 51,-44 70,-70 19,-27 36,-56 49,-87 13,-31 24,-63 31,-98l0 53c-5,17 -11,34 -18,50 -14,32 -31,62 -51,89 -20,28 -44,53 -73,74 -28,22 -60,40 -96,55 -37,15 -78,27 -124,34 -45,8 -96,12 -151,12 -55,0 -105,-4 -151,-12 -46,-7 -87,-19 -123,-34 -37,-15 -69,-33 -97,-55l0 0 -2 -2c10,3 22,5 33,7zm1434 -1400l98 0c2,4 5,9 7,13l-99 0 0 326c-4,1 -9,2 -13,3l0 -335 0 -7 7 0zm-382 1448l375 0 0 -710 0 -7 7 0 88 0c2,4 4,9 5,14l-87 0 0 710 0 7 -6 0 -389 0 -7 0 0 -7 0 -75 14 0 0 68zm715 -68c2,7 3,14 5,20 5,19 11,35 17,48l408 0 0 -11c-7,-3 -13,-6 -18,-10l0 0c-6,-5 -12,-11 -16,-17l0 0c-5,-6 -9,-14 -13,-24 -3,-9 -6,-20 -8,-33 -3,-13 -5,-28 -7,-47 -2,-18 -4,-39 -5,-62 -2,-24 -3,-53 -4,-89 -1,-35 -2,-76 -3,-123 -2,-69 -5,-126 -10,-172 -3,-22 -7,-43 -13,-63 -5,-20 -12,-39 -20,-56 -9,-17 -19,-33 -32,-48 -12,-14 -27,-27 -45,-39 -17,-12 -37,-22 -60,-30 -11,-4 -23,-7 -35,-10 -4,-5 -8,-11 -12,-16 18,4 35,8 51,13 24,9 46,19 64,32 18,12 34,26 48,41 13,16 24,33 33,51 9,18 16,38 21,58 6,21 10,43 13,66 5,45 9,103 11,173l0 0c0,47 1,88 2,123 2,35 3,64 4,88 2,24 4,44 6,62 2,18 4,33 6,45 2,13 5,23 8,32 3,8 7,15 10,20l0 0c4,5 9,10 14,14l0 0c6,4 12,8 19,11l5 1 0 5 0 22 0 7 -7 0 -419 0 -4 0 -2 -4c-8,-15 -15,-33 -20,-54 -2,-8 -4,-16 -6,-24l14 0zm115 -798c81,-25 143,-68 184,-128 23,-33 40,-73 51,-120 12,-47 18,-101 18,-162 0,-31 -2,-60 -6,-89 -4,-28 -10,-56 -18,-83 -8,-27 -19,-52 -31,-75l0 0c-13,-24 -27,-46 -44,-66l0 0c-17,-20 -37,-38 -60,-54 -22,-16 -48,-30 -76,-42 -8,-4 -17,-7 -26,-11 -6,-6 -12,-13 -19,-19 18,5 35,10 51,17 29,13 55,27 78,44 24,16 44,35 62,56l0 0c18,21 33,44 46,68l0 0c13,25 23,51 32,78 8,28 14,56 18,85 4,30 6,60 6,91 0,62 -6,117 -17,165 -12,49 -30,90 -54,124 -42,62 -104,106 -185,132 -3,-3 -6,-7 -10,-11zm-2977 -2824c0,-44 -2,-87 -5,-129 -3,-44 -8,-87 -14,-128 -7,-41 -18,-82 -33,-122 -15,-41 -34,-81 -58,-121 -23,-40 -53,-76 -90,-109 -37,-33 -81,-62 -131,-88 -8,-4 -15,-8 -23,-12 -11,-9 -22,-19 -33,-28 22,8 42,18 62,28l0 0c51,26 96,56 134,90 38,33 69,71 93,112 24,41 44,82 59,123 15,41 26,83 33,125 6,42 11,85 15,129 3,44 4,90 4,137l0 6 -6 0 -527 0 -7 0 0 -6c0,-25 0,-49 -1,-73l0 -2 13 0 0 2c1,21 2,43 2,66l513 0zm-1229 1660l9 5c44,27 95,46 153,60 58,13 122,19 193,19 118,0 221,-20 307,-62 30,-14 57,-32 81,-54l20 0c-28,27 -59,49 -95,66 -88,43 -193,64 -313,64 -72,0 -137,-7 -196,-20 -59,-14 -111,-34 -157,-61 -13,-8 -26,-16 -38,-25 12,3 24,5 36,8zm878 -32l3 69 361 0 0 -1294 -155 0 0 -14 159 0 0 1239 9 0 0 75 0 7 -6 0 -374 0 -6 0 -1 -6 -4 -76 14 0zm-386 -925l0 68 58 0 0 14 -65 0 -7 0 0 -7 0 -75 14 0zm-182 561c-12,-24 -22,-51 -30,-83 -9,-34 -16,-73 -22,-116 -6,-44 -11,-93 -14,-146 -3,-54 -6,-116 -7,-188 -2,-73 -3,-153 -3,-243 0,-88 1,-168 2,-240 2,-71 4,-134 7,-187 2,-54 6,-102 12,-146 6,-43 13,-82 22,-115l0 0c16,-68 43,-120 78,-154 27,-26 60,-43 97,-49 3,4 6,8 9,12 -38,6 -70,21 -96,47 -34,32 -59,82 -75,147l0 1c-9,32 -16,70 -21,113 -6,43 -10,91 -13,145 -3,53 -5,116 -6,187 -1,70 -2,150 -2,239 0,90 1,171 2,242 2,72 4,134 8,188 3,53 7,101 13,145 6,43 14,81 22,115 9,33 19,61 31,85l1 0c-4,1 -7,1 -10,1l-5 0zm1134 433l1364 0 0 -451 -154 0 0 -14 161 0 7 0 0 7 0 464 0 7 -7 0 -1378 0 -7 0 0 -7 0 -75 14 0 0 69zm532 -563l0 -451 0 -7 7 0 741 0 0 -451 -155 0 0 -13 162 0 6 0 0 6 0 465 0 6 -6 0 -741 0 0 445 -14 0zm0 -1021l0 -383 0 -7 7 0 790 0 0 -450 -155 0 0 -14 161 0 7 0 0 7 0 464 0 7 -7 0 -789 0 0 376 -14 0zm1529 1584l532 0 0 -1967 0 -7 7 0 480 0 0 -450 -154 0 0 -14 161 0 7 0 0 7 0 464 0 7 -7 0 -480 0 0 1966 0 7 -7 0 -546 0 -7 0 0 -7 0 -75 14 0 0 69zm-488 -2042l0 68 289 0 0 14 -296 0 -7 0 0 -7 0 -75 14 0z"/>
 </g>
</svg>
