<svg width="135" height="24" viewBox="0 0 135 24" fill="none" xmlns="http://www.w3.org/2000/svg">
<path d="M67.0687 15.6301C66.6732 16.1038 66.1142 16.4724 65.3915 16.7361C64.6688 16.9949 63.8681 17.1243 62.9892 17.1243C62.0663 17.1243 61.2558 16.9241 60.5575 16.5237C59.8642 16.1184 59.327 15.5325 58.9462 14.7659C58.5702 13.9993 58.3773 13.0984 58.3676 12.0632V11.3382C58.3676 10.2737 58.5458 9.35333 58.9022 8.57696C59.2636 7.79571 59.7812 7.20001 60.455 6.78985C61.1337 6.37481 61.9271 6.16729 62.8353 6.16729C64.1 6.16729 65.0888 6.47003 65.8017 7.0755C66.5145 7.67608 66.9369 8.55255 67.0687 9.70489H64.9301C64.8324 9.09454 64.6151 8.64776 64.2782 8.36456C63.9462 8.08136 63.4872 7.93975 62.9013 7.93975C62.1542 7.93975 61.5853 8.22052 61.1947 8.78204C60.8041 9.34356 60.6063 10.1785 60.6015 11.2869V11.968C60.6015 13.0862 60.8139 13.9309 61.2387 14.5022C61.6635 15.0735 62.286 15.3591 63.1063 15.3591C63.9315 15.3591 64.5199 15.1834 64.8715 14.8318V12.9934H62.872V11.3748H67.0687V15.6301ZM72.5326 11.1184L74.7519 6.31378H77.1542L73.6532 13.1106V16.9778H71.4193V13.1106L67.9184 6.31378H70.328L72.5326 11.1184ZM80.9994 6.31378L83.7387 14.0481L86.4633 6.31378H89.349V16.9778H87.1444V14.0628L87.3642 9.03106L84.4857 16.9778H82.977L80.1059 9.03839L80.3256 14.0628V16.9778H78.1283V6.31378H80.9994ZM93.4652 13.2205V16.9778H91.268V6.31378H95.4281C96.2289 6.31378 96.932 6.46026 97.5375 6.75323C98.1479 7.0462 98.6166 7.46368 98.9437 8.00567C99.2709 8.54278 99.4345 9.15557 99.4345 9.84405C99.4345 10.8889 99.0756 11.7141 98.3578 12.3196C97.6449 12.9202 96.6562 13.2205 95.3915 13.2205H93.4652ZM93.4652 11.4407H95.4281C96.0092 11.4407 96.4511 11.304 96.7538 11.0305C97.0614 10.7571 97.2152 10.3665 97.2152 9.8587C97.2152 9.33624 97.0614 8.91388 96.7538 8.59161C96.4462 8.26934 96.0214 8.10333 95.4794 8.09356H93.4652V11.4407ZM109.71 11.8875C109.71 12.9373 109.525 13.8577 109.154 14.6487C108.783 15.4397 108.25 16.0501 107.557 16.4798C106.868 16.9094 106.077 17.1243 105.184 17.1243C104.3 17.1243 103.512 16.9119 102.818 16.4871C102.125 16.0623 101.588 15.4568 101.207 14.6707C100.826 13.8797 100.633 12.9715 100.628 11.9461V11.4187C100.628 10.3689 100.816 9.4461 101.192 8.6502C101.573 7.84942 102.108 7.23663 102.796 6.81182C103.49 6.38214 104.281 6.16729 105.169 6.16729C106.058 6.16729 106.846 6.38214 107.535 6.81182C108.228 7.23663 108.763 7.84942 109.139 8.6502C109.52 9.4461 109.71 10.3665 109.71 11.4114V11.8875ZM107.484 11.4041C107.484 10.2859 107.283 9.43634 106.883 8.85528C106.483 8.27423 105.911 7.9837 105.169 7.9837C104.432 7.9837 103.863 8.27179 103.463 8.84796C103.062 9.41925 102.86 10.259 102.855 11.3674V11.8875C102.855 12.9763 103.055 13.8211 103.455 14.4216C103.856 15.0222 104.432 15.3225 105.184 15.3225C105.921 15.3225 106.488 15.0344 106.883 14.4583C107.279 13.8772 107.479 13.0325 107.484 11.9241V11.4041ZM113.643 16.9778H111.446V6.31378H113.643V16.9778ZM124.359 16.9778H122.161L117.884 9.96124V16.9778H115.687V6.31378H117.884L122.169 13.345V6.31378H124.359V16.9778ZM134.085 8.09356H130.819V16.9778H128.621V8.09356H125.399V6.31378H134.085V8.09356Z" fill="#EE4D64"/>
<path fill-rule="evenodd" clip-rule="evenodd" d="M41.925 5.33261C41.4296 5.33261 40.9602 5.44585 40.5412 5.64774C40.4368 3.97766 39.0456 2.65082 37.3497 2.65082C36.8534 2.65082 36.3832 2.76443 35.9636 2.96705C35.8446 1.31117 34.4602 0 32.7745 0C31.0109 0 29.5761 1.43479 29.5761 3.19845V8.50016C29.5761 9.00316 29.9839 9.41095 30.4869 9.41095C30.9899 9.41095 31.3977 9.00316 31.3977 8.50016V3.19845C31.3977 2.43921 32.0153 1.82158 32.7745 1.82158C33.5337 1.82158 34.1513 2.43921 34.1513 3.19845V20.4377C34.1513 21.197 33.5337 21.8146 32.7745 21.8146C32.0153 21.8146 31.3977 21.197 31.3977 20.4377V15.136C31.3977 14.633 30.9899 14.2252 30.4869 14.2252H18.2026C17.6996 14.2252 17.2918 14.633 17.2918 15.136C17.2918 15.639 17.6996 16.0468 18.2026 16.0468H29.5761V20.4377C29.5761 22.2014 31.0109 23.6362 32.7745 23.6362C34.4602 23.6362 35.8446 22.325 35.9636 20.6691C36.3832 20.8717 36.8534 20.9853 37.3497 20.9853C39.0456 20.9853 40.4368 19.6584 40.5412 17.9884C40.9602 18.1903 41.4296 18.3036 41.925 18.3036C43.6886 18.3036 45.1234 16.8688 45.1234 15.1052V8.53094C45.1234 6.76735 43.6886 5.33261 41.925 5.33261ZM38.7267 17.7869C38.7267 18.5461 38.109 19.1638 37.3498 19.1638C36.5906 19.1638 35.9729 18.5461 35.9729 17.7869V5.84927C35.9729 5.09004 36.5906 4.4724 37.3498 4.4724C38.109 4.4724 38.7267 5.09004 38.7267 5.84927V17.7869ZM41.925 16.482C42.6842 16.482 43.3019 15.8643 43.3019 15.1052V8.53094C43.3019 7.77183 42.6842 7.15419 41.925 7.15419C41.1658 7.15419 40.5482 7.77183 40.5482 8.53094V15.1052C40.5482 15.8643 41.1658 16.482 41.925 16.482Z" fill="#EE4D64"/>
<path fill-rule="evenodd" clip-rule="evenodd" d="M14.6367 14.2252C14.1337 14.2252 13.7259 14.633 13.7259 15.136V20.4377C13.7259 21.197 13.1083 21.8146 12.3491 21.8146C11.5898 21.8146 10.9722 21.197 10.9722 20.4377V3.19845C10.9722 2.43921 11.5898 1.82158 12.3491 1.82158C13.1083 1.82158 13.7259 2.43921 13.7259 3.19845V8.50016C13.7259 9.00316 14.1337 9.41095 14.6367 9.41095H26.9211C27.4241 9.41095 27.8319 9.00316 27.8319 8.50016C27.8319 7.99716 27.4241 7.58937 26.9211 7.58937H15.5475V3.19845C15.5475 1.43479 14.1127 0 12.3491 0C10.6633 0 9.27895 1.31117 9.15988 2.96705C8.74031 2.76443 8.27004 2.65082 7.77372 2.65082C6.07783 2.65082 4.68669 3.97778 4.58225 5.64774C4.16328 5.44585 3.69386 5.33261 3.19845 5.33261C1.4348 5.33261 0 6.76741 0 8.53106V15.1052C0 16.8688 1.4348 18.3035 3.19845 18.3035C3.69386 18.3035 4.16328 18.1903 4.58225 17.9884C4.68669 19.6584 6.07783 20.9853 7.77372 20.9853C8.27004 20.9853 8.74025 20.8717 9.15988 20.6691C9.27895 22.3249 10.6633 23.6361 12.3491 23.6361C14.1127 23.6361 15.5475 22.2013 15.5475 20.4377V15.1359C15.5475 14.633 15.1398 14.2252 14.6367 14.2252ZM3.19858 16.482C2.4394 16.482 1.8217 15.8643 1.8217 15.1052V8.53106C1.8217 7.77183 2.43934 7.15419 3.19858 7.15419C3.95775 7.15419 4.57539 7.77183 4.57539 8.53106V15.1052C4.57533 15.8643 3.95769 16.482 3.19858 16.482ZM6.39691 17.7869C6.39691 18.5461 7.0146 19.1638 7.77378 19.1638C8.53301 19.1638 9.15065 18.5461 9.15065 17.7869V5.84927C9.15065 5.09004 8.53301 4.4724 7.77378 4.4724C7.01454 4.4724 6.39691 5.09004 6.39691 5.84927V17.7869Z" fill="#EE4D64"/>
<path d="M13.7234 11.8713V12.1766C13.7234 12.6796 14.1311 13.0874 14.6341 13.0874C15.1371 13.0874 15.5449 12.6796 15.5449 12.1766V11.8713C15.5449 11.3683 15.1371 10.9605 14.6341 10.9605C14.1311 10.9605 13.7234 11.3683 13.7234 11.8713Z" fill="#EE4D64"/>
<path d="M31.3978 11.77V11.4646C31.3978 10.9616 30.9899 10.5538 30.487 10.5538C29.9839 10.5538 29.5762 10.9616 29.5762 11.4646V11.77C29.5762 12.273 29.9839 12.6808 30.487 12.6808C30.99 12.6808 31.3978 12.273 31.3978 11.77Z" fill="#EE4D64"/>
</svg>
